<svg width="635" height="457" viewBox="0 0 635 457" fill="none" xmlns="http://www.w3.org/2000/svg">
<path opacity="0.1" d="M368.469 80.5854C327.812 79.1724 289.06 66.0466 252.111 51.6888C215.163 37.331 178.542 21.4201 138.837 13.812C113.31 8.91321 84.1154 8.22422 63.5509 21.9105C43.7571 35.0772 37.3636 57.8079 33.9245 78.898C31.3379 94.768 29.8373 111.467 36.9081 126.327C41.8303 136.639 50.5653 145.309 56.6085 155.189C77.6284 189.562 62.7685 231.952 39.9852 265.543C29.3001 281.308 16.9042 296.308 8.65967 313.072C0.415176 329.835 -3.40344 349.039 3.8134 366.136C10.966 383.068 28.0039 395.809 46.4664 404.76C83.9636 422.924 128.146 428.121 171.231 431.099C266.604 437.621 362.49 434.795 458.113 431.969C493.502 430.918 529.049 429.861 563.861 424.378C583.193 421.336 603.156 416.513 617.193 404.871C635.007 390.087 639.427 365.061 627.487 346.523C607.459 315.437 552.089 307.712 538.088 274.348C530.386 255.985 538.298 235.526 549.497 218.494C573.512 181.96 613.777 149.905 615.897 108.139C617.356 79.4527 598 50.7312 568.07 37.1558C536.704 22.9148 493.204 24.7132 470.065 48.2497C446.237 72.4986 404.36 81.8291 368.469 80.5854Z" fill="#E23E57"/>
<path d="M141.447 423.333C141.447 423.333 109.333 399.055 103.267 368.173C100.807 355.203 94.2078 343.38 84.4599 334.477C79.7967 330.289 74.7601 326.537 69.4131 323.266" stroke="#535461" stroke-width="2" stroke-miterlimit="10"/>
<path d="M65.4835 303.811C68.2979 307.618 69.5708 323.751 69.5708 323.751C69.5708 323.751 54.524 317.825 51.7038 314.024C50.3496 312.196 49.7767 309.906 50.1112 307.656C50.4458 305.406 51.6603 303.382 53.4876 302.028C55.3149 300.673 57.6053 300.1 59.855 300.435C62.1047 300.769 64.1293 301.984 65.4835 303.811Z" fill="#E23E57"/>
<path d="M92.4709 316.47C92.7628 321.194 85.073 335.429 85.073 335.429C85.073 335.429 75.6549 322.268 75.3571 317.544C75.2439 315.292 76.0225 313.087 77.5244 311.405C79.0262 309.723 81.1302 308.701 83.3806 308.559C85.6309 308.418 87.8463 309.169 89.5468 310.65C91.2472 312.13 92.2957 314.222 92.465 316.47H92.4709Z" fill="#E23E57"/>
<path d="M118.629 352.858C116.504 357.085 102.671 365.493 102.671 365.493C102.671 365.493 101.194 349.378 103.319 345.151C104.366 343.163 106.151 341.665 108.29 340.98C110.429 340.294 112.752 340.476 114.759 341.486C116.765 342.497 118.295 344.254 119.019 346.381C119.743 348.508 119.603 350.833 118.629 352.858Z" fill="#E23E57"/>
<path d="M132.228 384.832C130.844 389.357 118.635 399.978 118.635 399.978C118.635 399.978 114.448 384.347 115.832 379.816C116.497 377.642 117.999 375.821 120.006 374.754C122.014 373.687 124.364 373.461 126.538 374.126C128.712 374.791 130.533 376.293 131.6 378.3C132.667 380.308 132.893 382.657 132.228 384.832Z" fill="#E23E57"/>
<path d="M71.1531 346.873C75.8242 347.504 90.5907 340.836 90.5907 340.836C90.5907 340.836 78.1306 330.513 73.4361 329.882C71.1829 329.579 68.9018 330.184 67.0945 331.563C65.2872 332.942 64.1018 334.983 63.799 337.236C63.4963 339.489 64.101 341.77 65.4802 343.578C66.8593 345.385 68.8999 346.57 71.1531 346.873Z" fill="#E23E57"/>
<path d="M87.5312 384.072C92.2023 383.273 104.271 372.5 104.271 372.5C104.271 372.5 89.2887 366.381 84.6234 367.181C83.5064 367.364 82.4368 367.766 81.4762 368.365C80.5156 368.964 79.6832 369.747 79.0268 370.669C78.3704 371.591 77.9032 372.634 77.6521 373.737C77.401 374.841 77.3709 375.984 77.5637 377.099C77.7565 378.214 78.1682 379.28 78.7752 380.236C79.3822 381.191 80.1724 382.017 81.1002 382.665C82.0279 383.314 83.0749 383.772 84.1807 384.013C85.2865 384.255 86.4292 384.275 87.5428 384.072H87.5312Z" fill="#E23E57"/>
<path d="M108.405 418.049C113.14 418.049 126.862 409.472 126.862 409.472C126.862 409.472 113.135 400.906 108.399 400.906C106.126 400.906 103.946 401.809 102.338 403.416C100.731 405.024 99.8279 407.204 99.8279 409.477C99.8279 411.751 100.731 413.931 102.338 415.538C103.946 417.146 106.126 418.049 108.399 418.049H108.405Z" fill="#E23E57"/>
<path d="M453.418 213.35C453.418 213.35 473.212 178.287 503.049 168.186C515.577 164.025 526.419 155.914 533.948 145.07C537.479 139.885 540.526 134.387 543.051 128.645" stroke="#535461" stroke-width="2" stroke-miterlimit="10"/>
<path d="M561.782 122.222C558.384 125.515 542.566 128.925 542.566 128.925C542.566 128.925 546.449 113.219 549.847 109.92C551.488 108.384 553.665 107.554 555.912 107.608C558.158 107.662 560.293 108.596 561.858 110.209C563.422 111.821 564.291 113.984 564.277 116.231C564.263 118.478 563.367 120.629 561.782 122.222Z" fill="#E23E57"/>
<path d="M552.837 150.617C548.166 151.539 533.061 145.806 533.061 145.806C533.061 145.806 544.855 134.712 549.497 133.807C550.612 133.559 551.764 133.537 552.888 133.741C554.011 133.946 555.082 134.372 556.038 134.996C556.994 135.62 557.816 136.429 558.455 137.375C559.095 138.32 559.539 139.384 559.761 140.504C559.984 141.624 559.98 142.777 559.751 143.895C559.522 145.014 559.071 146.075 558.426 147.017C557.781 147.959 556.955 148.763 555.995 149.381C555.035 149.999 553.961 150.419 552.837 150.617Z" fill="#E23E57"/>
<path d="M520.279 181.376C515.807 179.829 505.641 167.24 505.641 167.24C505.641 167.24 521.406 163.632 525.89 165.179C526.968 165.536 527.963 166.104 528.82 166.85C529.676 167.595 530.375 168.503 530.878 169.521C531.38 170.539 531.675 171.646 531.746 172.779C531.817 173.912 531.662 175.048 531.291 176.12C530.919 177.193 530.338 178.181 529.582 179.027C528.825 179.874 527.908 180.561 526.884 181.05C525.859 181.539 524.748 181.82 523.614 181.876C522.48 181.932 521.347 181.762 520.279 181.376Z" fill="#E23E57"/>
<path d="M490.361 199.103C485.69 198.332 473.568 187.618 473.568 187.618C473.568 187.618 488.51 181.394 493.175 182.164C495.421 182.534 497.427 183.78 498.754 185.629C500.081 187.478 500.618 189.778 500.249 192.023C499.88 194.269 498.633 196.275 496.785 197.602C494.936 198.929 492.635 199.466 490.39 199.097L490.361 199.103Z" fill="#E23E57"/>
<path d="M519.871 133.526C519.865 138.262 528.454 152.001 528.454 152.001C528.454 152.001 537.031 138.279 537.031 133.55C537.061 132.406 536.861 131.267 536.444 130.201C536.027 129.136 535.401 128.164 534.602 127.345C533.803 126.525 532.849 125.873 531.794 125.429C530.74 124.984 529.607 124.755 528.463 124.755C527.318 124.755 526.185 124.984 525.131 125.429C524.076 125.873 523.122 126.525 522.323 127.345C521.524 128.164 520.898 129.136 520.481 130.201C520.064 131.267 519.864 132.406 519.894 133.55L519.871 133.526Z" fill="#E23E57"/>
<path d="M485.17 154.698C486.583 159.217 498.868 169.757 498.868 169.757C498.868 169.757 502.955 154.097 501.531 149.577C500.792 147.484 499.269 145.758 497.284 144.764C495.298 143.771 493.005 143.586 490.886 144.25C488.767 144.914 486.988 146.374 485.924 148.322C484.86 150.271 484.594 152.557 485.182 154.698H485.17Z" fill="#E23E57"/>
<path d="M454.3 179.905C454.931 184.576 465.254 197.053 465.254 197.053C465.254 197.053 471.916 182.31 471.285 177.622C471.16 176.486 470.809 175.386 470.253 174.388C469.697 173.389 468.946 172.512 468.046 171.808C467.146 171.104 466.114 170.587 465.011 170.288C463.908 169.988 462.756 169.913 461.623 170.065C460.491 170.217 459.4 170.594 458.415 171.174C457.43 171.754 456.572 172.525 455.889 173.442C455.207 174.359 454.715 175.403 454.442 176.513C454.169 177.623 454.121 178.776 454.3 179.905Z" fill="#E23E57"/>
<path opacity="0.25" d="M561.782 122.222C558.384 125.515 542.566 128.925 542.566 128.925C542.566 128.925 546.449 113.219 549.847 109.92C551.488 108.384 553.665 107.554 555.912 107.608C558.158 107.662 560.293 108.596 561.858 110.209C563.422 111.821 564.291 113.984 564.277 116.231C564.263 118.478 563.367 120.629 561.782 122.222Z" fill="black"/>
<path opacity="0.25" d="M552.837 150.617C548.166 151.539 533.061 145.806 533.061 145.806C533.061 145.806 544.855 134.712 549.497 133.807C550.612 133.559 551.764 133.537 552.888 133.741C554.011 133.946 555.082 134.372 556.038 134.996C556.994 135.62 557.816 136.429 558.455 137.375C559.095 138.32 559.539 139.384 559.761 140.504C559.984 141.624 559.98 142.777 559.751 143.895C559.522 145.014 559.071 146.075 558.426 147.017C557.781 147.959 556.955 148.763 555.995 149.381C555.035 149.999 553.961 150.419 552.837 150.617Z" fill="black"/>
<path opacity="0.25" d="M520.279 181.376C515.807 179.829 505.641 167.24 505.641 167.24C505.641 167.24 521.406 163.632 525.89 165.179C526.968 165.536 527.963 166.104 528.82 166.85C529.676 167.595 530.375 168.503 530.878 169.521C531.38 170.539 531.675 171.646 531.746 172.779C531.817 173.912 531.662 175.048 531.291 176.12C530.919 177.193 530.338 178.181 529.582 179.027C528.825 179.874 527.908 180.561 526.884 181.05C525.859 181.539 524.748 181.82 523.614 181.876C522.48 181.932 521.347 181.762 520.279 181.376Z" fill="black"/>
<path opacity="0.25" d="M490.361 199.103C485.69 198.332 473.568 187.618 473.568 187.618C473.568 187.618 488.51 181.394 493.175 182.164C495.421 182.534 497.427 183.78 498.754 185.629C500.081 187.478 500.618 189.778 500.249 192.023C499.88 194.269 498.633 196.275 496.785 197.602C494.936 198.929 492.635 199.466 490.39 199.097L490.361 199.103Z" fill="black"/>
<path opacity="0.25" d="M519.871 133.526C519.865 138.262 528.454 152.001 528.454 152.001C528.454 152.001 537.031 138.279 537.031 133.55C537.061 132.406 536.861 131.267 536.444 130.201C536.027 129.136 535.401 128.164 534.602 127.345C533.803 126.525 532.849 125.873 531.794 125.429C530.74 124.984 529.607 124.755 528.463 124.755C527.318 124.755 526.185 124.984 525.131 125.429C524.076 125.873 523.122 126.525 522.323 127.345C521.524 128.164 520.898 129.136 520.481 130.201C520.064 131.267 519.864 132.406 519.894 133.55L519.871 133.526Z" fill="black"/>
<path opacity="0.25" d="M485.17 154.698C486.583 159.217 498.868 169.757 498.868 169.757C498.868 169.757 502.955 154.097 501.531 149.577C500.792 147.484 499.269 145.758 497.284 144.764C495.298 143.771 493.005 143.586 490.886 144.25C488.767 144.914 486.988 146.374 485.924 148.322C484.86 150.271 484.594 152.557 485.182 154.698H485.17Z" fill="black"/>
<path opacity="0.25" d="M454.3 179.905C454.931 184.576 465.254 197.053 465.254 197.053C465.254 197.053 471.916 182.31 471.285 177.622C471.16 176.486 470.809 175.386 470.253 174.388C469.697 173.389 468.946 172.512 468.046 171.808C467.146 171.104 466.114 170.587 465.011 170.288C463.908 169.988 462.756 169.913 461.623 170.065C460.491 170.217 459.4 170.594 458.415 171.174C457.43 171.754 456.572 172.525 455.889 173.442C455.207 174.359 454.715 175.403 454.442 176.513C454.169 177.623 454.121 178.776 454.3 179.905Z" fill="black"/>
<path d="M454.557 212.655C454.557 212.655 458.446 172.577 481.603 151.265C491.37 142.383 497.995 130.575 500.485 117.61C501.619 111.446 502.184 105.192 502.173 98.9253" stroke="#535461" stroke-width="2" stroke-miterlimit="10"/>
<path d="M516.688 85.4024C514.937 89.7932 501.834 99.3223 501.834 99.3223C501.834 99.3223 499.02 83.388 500.789 78.9972C501.641 76.8888 503.295 75.2051 505.388 74.3165C507.481 73.4279 509.842 73.4072 511.95 74.2589C514.059 75.1106 515.742 76.765 516.631 78.8581C517.519 80.9512 517.54 83.3115 516.688 85.4199V85.4024Z" fill="#E23E57"/>
<path d="M520.022 115.017C516.151 117.738 499.995 118.631 499.995 118.631C499.995 118.631 506.289 103.719 510.16 100.998C511.078 100.311 512.125 99.815 513.238 99.5397C514.351 99.2643 515.509 99.2152 516.641 99.3951C517.774 99.575 518.859 99.9803 519.832 100.587C520.805 101.194 521.646 101.99 522.306 102.927C522.966 103.865 523.431 104.926 523.674 106.047C523.916 107.167 523.932 108.325 523.719 109.452C523.506 110.579 523.069 111.652 522.434 112.606C521.799 113.561 520.979 114.379 520.022 115.011V115.017Z" fill="#E23E57"/>
<path d="M502.704 156.345C497.986 156.742 483.588 149.338 483.588 149.338C483.588 149.338 496.55 139.646 501.268 139.249C503.533 139.058 505.782 139.775 507.519 141.243C509.255 142.71 510.338 144.807 510.528 147.073C510.719 149.338 510.001 151.587 508.534 153.323C507.067 155.06 504.97 156.143 502.704 156.333V156.345Z" fill="#E23E57"/>
<path d="M482.554 184.657C477.971 185.825 462.533 180.996 462.533 180.996C462.533 180.996 473.668 169.254 478.251 168.063C480.452 167.493 482.789 167.82 484.748 168.972C486.708 170.124 488.129 172.008 488.7 174.209C489.27 176.409 488.944 178.746 487.791 180.706C486.639 182.665 484.755 184.087 482.554 184.657Z" fill="#E23E57"/>
<path d="M482.963 112.752C484.878 117.078 498.273 126.181 498.273 126.181C498.273 126.181 500.55 110.159 498.635 105.833C497.68 103.808 495.972 102.238 493.875 101.456C491.778 100.674 489.459 100.744 487.412 101.65C485.366 102.556 483.755 104.226 482.923 106.304C482.092 108.381 482.106 110.702 482.963 112.769V112.752Z" fill="#E23E57"/>
<path d="M459.818 146.162C462.942 149.718 478.438 154.377 478.438 154.377C478.438 154.377 475.822 138.408 472.698 134.852C471.961 133.988 471.059 133.279 470.046 132.767C469.032 132.255 467.927 131.949 466.794 131.867C465.661 131.786 464.524 131.93 463.447 132.292C462.371 132.654 461.377 133.226 460.523 133.976C459.67 134.725 458.974 135.636 458.476 136.657C457.978 137.678 457.687 138.787 457.622 139.921C457.556 141.055 457.716 142.191 458.093 143.262C458.47 144.333 459.056 145.319 459.818 146.162Z" fill="#E23E57"/>
<path d="M441.781 181.732C444.257 185.761 458.743 192.972 458.743 192.972C458.743 192.972 458.866 176.792 456.408 172.758C455.184 170.895 453.283 169.582 451.107 169.097C448.932 168.613 446.653 168.994 444.754 170.162C442.856 171.329 441.486 173.19 440.937 175.35C440.387 177.51 440.701 179.799 441.811 181.732H441.781Z" fill="#E23E57"/>
<path d="M424.779 55.7001C425.748 52.1442 426.916 48.5708 427.733 44.9682C426.752 48.5708 425.579 52.1559 424.779 55.7001Z" fill="url(#paint0_linear)"/>
<path d="M420.434 89.9509C420.353 89.8108 420.294 89.6706 420.23 89.5422C420.23 89.4838 420.172 89.4371 420.148 89.3787C420.021 89.4387 419.891 89.4914 419.757 89.5364C419.5 89.6356 419.238 89.729 418.969 89.8049C418.7 89.8808 418.589 89.9217 418.385 89.9684C418.216 90.0268 418.042 90.0717 417.865 90.1027L417.912 90.2078C418.128 90.1611 418.338 90.1202 418.554 90.0619L418.613 90.7859C418.858 90.7859 419.086 90.7508 419.308 90.7508C419.413 90.7451 419.518 90.7451 419.623 90.7508C420.078 90.7508 420.475 90.7508 420.791 90.7508C420.668 90.4881 420.54 90.2137 420.434 89.9509ZM538.964 278.622C536.219 274.926 530.742 235.257 530.742 235.257C530.742 235.257 519.97 207.05 522.907 195.792C525.844 184.535 514.884 155.732 514.884 155.732C514.884 155.732 507.644 152.585 507.253 147.913C507.253 147.913 477.69 138.571 476.307 131.565C475.186 125.819 456.852 121.697 450.265 120.395C448.257 112.29 446.236 104.729 444.748 100.601C444.345 99.3165 443.965 98.2071 443.615 97.3312C441.098 90.9085 433.321 90.3246 427.681 90.8384C427.436 89.7437 426.982 88.7068 426.343 87.7847C426.25 87.4677 426.065 87.1853 425.812 86.9731C425.691 86.8699 425.562 86.7762 425.427 86.6928C425.325 86.5036 425.19 86.3336 425.03 86.1907C424.869 86.0463 424.693 85.921 424.504 85.817C424.368 85.7436 424.228 85.6792 424.084 85.6243C423.745 85.4955 423.395 85.3996 423.039 85.3382C422.623 85.2527 422.201 85.198 421.777 85.1747C422.808 84.7239 423.727 84.0522 424.469 83.207C424.974 82.6137 425.35 81.9217 425.573 81.1751C425.758 80.5542 425.84 79.9074 425.818 79.2599C425.666 79.5267 425.491 79.7789 425.292 80.0132C425.538 77.4265 424.171 74.799 423.389 72.2241C422.441 68.8719 422.265 65.3484 422.875 61.9185C423.658 56.7452 425.596 51.5136 426.91 46.2469C426.913 46.2178 426.913 46.1885 426.91 46.1594C427.599 43.5438 428.025 40.8661 428.183 38.1659C428.41 32.7183 427.015 27.2823 424.773 22.3192C422.782 17.9226 419.845 13.596 415.349 11.8093C412.009 10.4605 408.266 10.6765 404.67 10.4546C396.6 9.95251 388.905 7.11481 381.232 4.53403C373.56 1.95325 365.666 -0.393978 357.591 0.055615C349.516 0.505208 341.207 4.39973 337.522 11.5465C336.355 13.777 335.683 16.2585 334.288 18.3546C331.672 22.3076 326.989 24.2869 323.083 27.0137C319.177 29.7404 315.738 33.6116 314.325 38.2302C313.553 40.7185 313.444 43.3651 314.009 45.9083C314.136 46.4826 314.3 47.0482 314.5 47.6016C315.054 49.1443 315.918 50.5572 317.04 51.753C317.885 52.6368 318.857 53.3904 319.924 53.9893C321.264 54.7318 322.697 55.2896 324.186 55.6475C324.134 55.8227 324.081 56.0095 324.023 56.1905C323.93 56.4883 323.848 56.7744 323.76 57.0956C323.568 57.8138 323.387 58.5436 323.235 59.2793C323.229 59.3317 323.229 59.3846 323.235 59.437C322.518 62.7581 322.157 66.1464 322.16 69.544C322.159 71.1509 322.241 72.7568 322.406 74.3553C324.741 98.0494 344.301 116.74 368.469 117.954C369.298 117.995 370.133 118.018 370.979 118.018C371.365 118.018 371.744 118.018 372.147 118.018C372.527 118.521 372.9 119.034 373.256 119.536C373.613 120.039 373.94 120.552 374.249 121.055L373.402 120.179L372.556 119.402C372.326 119.717 372.07 120.012 371.791 120.284C371.239 120.09 370.675 119.93 370.103 119.805C367.68 119.268 363.99 119.069 359.132 120.535C354.665 121.872 349.206 124.622 342.818 129.848L311.691 148.532L294.852 158.774L288.785 173.604C288.785 173.604 284.225 191.226 279.151 211.417C278.953 211.475 278.76 211.534 278.567 211.604C278.156 211.557 277.743 211.534 277.329 211.534C274.386 211.527 271.554 212.661 269.428 214.698C267.303 216.735 266.05 219.517 265.932 222.458C255.842 234.72 255.27 246.982 257.641 252.61C257.855 253.138 258.126 253.641 258.447 254.111C260 256.353 262.902 262.133 265.844 268.293C265.769 268.801 265.722 269.228 265.698 269.549C265.693 269.654 265.693 269.759 265.698 269.864C265.698 269.864 267.45 296.32 261.611 303.905C260.333 305.557 260.525 307.729 261.611 310.135C265.523 318.788 280.99 330.343 280.99 330.343C280.99 330.343 299.541 330.244 309.875 329.117C309.846 330.156 309.823 331.19 309.8 332.2C309.566 342.406 309.566 350.96 309.566 350.96L309.181 361.663C309.181 361.663 305.677 384.218 303.926 390.437C302.822 394.337 304.095 430.451 305.204 457H487.973C490.121 441.293 487.091 393.572 487.091 393.572C487.091 393.572 484.212 381.235 484.107 370.48C484.102 370.468 484.099 370.455 484.099 370.442C484.099 370.428 484.102 370.416 484.107 370.404C484.107 369.464 484.107 368.547 484.142 367.648L485.468 367.601L487.85 367.519H488.066C488.066 367.519 488.125 367.297 488.259 366.935C488.574 366.034 489.004 365.176 489.538 364.384C490.553 362.883 492.142 361.412 494.53 361.313C495.849 361.26 497.893 360.191 500.199 358.615C500.215 358.618 500.231 358.618 500.246 358.615C506.453 354.417 514.656 346.669 516.647 345.396C519.386 343.644 532.5 331.966 532.5 331.966C532.5 331.966 534.456 329.491 536.54 326.507L536.616 326.402C539.209 322.665 541.965 318.198 541.287 316.791C540.12 314.269 542.07 308.237 542.07 308.237C548.16 297.091 541.708 282.318 538.964 278.622ZM426.057 99.0304C426.113 99.2047 426.149 99.385 426.162 99.5675C426.016 99.3749 425.87 99.1705 425.724 98.9837L425.584 98.7968L425.485 98.6567L425.707 98.3531C425.707 98.3531 425.707 98.3531 425.707 98.3939C425.861 98.5832 425.98 98.7988 426.057 99.0304ZM424.095 93.8571C423.459 93.9856 422.957 94.1024 422.63 94.1899C422.215 93.4542 421.818 92.7185 421.462 91.9712C422.398 92.5142 423.28 93.1458 424.095 93.8571ZM422.998 94.7797C422.996 94.768 422.996 94.7562 422.998 94.7446L423.044 94.7797C423.284 94.9373 423.517 95.0891 423.733 95.2468C423.926 95.3869 424.101 95.5212 424.276 95.6613C424.16 95.8657 424.031 96.0759 423.903 96.2452C423.698 95.9241 423.506 95.6146 423.319 95.2935C423.202 95.165 423.097 94.9899 422.998 94.7797ZM419.494 87.5745C420.622 87.4632 421.759 87.4632 422.887 87.5745C423.044 87.5745 423.185 87.6037 423.325 87.627C423.641 87.676 423.952 87.7562 424.253 87.8664C424.943 88.8318 425.368 89.9612 425.485 91.142L425.17 91.1888L424.86 91.2471C424.276 91.3464 423.693 91.4457 423.237 91.5391L422.653 91.6617C421.877 91.831 421.427 91.9595 421.41 91.9653C421.334 91.8077 421.258 91.6617 421.176 91.5099C421.048 91.2588 420.913 91.0019 420.796 90.7508C420.68 90.4998 420.528 90.2137 420.405 89.9509C420.324 89.8108 420.265 89.6706 420.201 89.5422C420.201 89.4838 420.143 89.4371 420.119 89.3787C420.085 89.3168 420.056 89.2524 420.032 89.186C419.675 88.462 419.348 87.738 419.033 87.0256C418.998 86.9556 418.969 86.8797 418.94 86.8096L419.383 86.7804V86.9322L419.494 87.5745ZM280.185 449.783C280.138 441.089 279.507 431.683 277.756 422.854C277.008 419.1 276.238 415.345 275.455 411.655C275.257 410.733 275.064 409.822 274.871 408.911L273.073 409.15H272.91C268.005 386.023 262.878 365.645 262.878 365.645C262.878 365.645 252.695 326.764 253.875 323.664C254.027 323.261 253.834 322.175 253.402 320.581C250.938 311.741 240.65 287.381 237.053 279.055C237.053 279.019 237.024 278.979 237.012 278.949C236.428 277.554 236.008 276.614 235.879 276.339L236.726 263.914L236.773 263.167L236.884 261.579L236.837 261.538L236.884 260.802C236.884 260.802 227.997 253.515 212.944 248.254C212.36 248.044 211.741 247.84 211.128 247.641C211.882 242.614 212.88 236.939 214.182 231.409C214.305 230.855 214.439 230.317 214.579 229.774C214.702 229.231 214.842 228.706 214.982 228.175C215.204 227.31 215.443 226.458 215.689 225.617C216.5 225.36 217.3 225.074 218.088 224.771L218.392 224.654C228.102 220.875 236.115 213.706 240.946 204.474C245.777 195.241 247.099 184.571 244.667 174.439C243.28 168.693 240.72 163.296 237.146 158.587C236.878 158.225 236.592 157.863 236.306 157.507C236.019 157.15 235.675 156.753 235.354 156.391C237.041 152.555 239.032 148.906 239.196 145.175C239.225 144.702 239.225 144.229 239.196 143.756V143.698C238.98 141.298 237.917 138.869 235.441 136.317C231.827 132.575 226.683 130.677 221.539 129.766C216.395 128.855 211.152 128.832 205.978 128.219C197.401 127.191 189.046 124.546 180.468 123.735C169.903 122.756 159.267 124.568 149.622 128.99C143.24 131.909 136.776 137.012 136.391 144.013C136.075 149.799 140.104 155.346 139.088 161.063C138.078 166.68 132.356 171.1 132.858 176.781C133.051 179 134.19 180.985 135.614 182.754C136.105 183.338 136.624 183.922 137.162 184.506C139.24 186.707 141.529 188.821 142.691 191.594C142.738 191.711 142.784 191.828 142.825 191.944C143.812 194.683 143.368 198.145 140.928 199.716C140.941 199.726 140.951 199.741 140.957 199.757C140.992 199.803 141.027 199.839 141.056 199.885C141.06 199.876 141.06 199.865 141.056 199.856C141.921 200.882 143.088 201.609 144.39 201.935L144.886 202.086C144.483 202.524 144.104 202.98 143.719 203.459L143.467 203.791C142.824 204.657 142.239 205.564 141.716 206.507C141.418 207.032 141.132 207.557 140.893 208.083C140.092 209.685 139.513 211.388 139.17 213.145C138.545 217.011 139.427 221.039 138.481 224.823C137.313 229.494 133.617 233.079 131.533 237.418C127.586 245.592 129.822 255.185 130.616 264.212C131.696 276.474 129.945 288.788 128.199 300.968C127.272 307.445 126.346 313.928 125.42 320.417C123.084 336.704 120.748 352.99 118.413 369.277C117.56 375.244 116.55 381.538 112.574 386.145H112.615C112.615 386.145 112.615 386.18 112.574 386.192C113.768 386.714 115.037 387.041 116.334 387.161C121.525 387.681 127.025 385.17 131.696 382.426C135.396 380.288 138.899 377.828 142.165 375.075C141.687 376.826 141.173 378.736 140.624 380.791C140.626 380.81 140.626 380.83 140.624 380.849C134.032 405.957 123.428 451.984 123.428 451.984C123.428 451.984 122.465 453.987 121.216 456.971H285.872C283.945 454.635 282.152 452.399 280.751 450.595L280.185 449.783ZM158.269 217.63C158.31 217.559 158.339 217.495 158.38 217.431C158.38 217.618 158.38 217.799 158.38 217.974C158.38 218.149 158.38 218.307 158.38 218.47C158.38 218.634 158.38 218.616 158.38 218.698C158.38 218.78 158.38 218.698 158.38 218.698C158.38 218.937 158.327 219.177 158.287 219.416C158.287 219.416 158.287 219.445 158.287 219.469L158.87 219.685L159.548 219.965C163.549 221.545 167.602 222.976 171.704 224.257C172.125 224.391 172.551 224.519 172.977 224.642L173.065 225.366C173.17 226.108 173.269 226.861 173.363 227.614C173.363 227.614 173.363 227.649 173.363 227.672C173.625 229.757 173.882 231.836 174.11 233.867C174.11 233.867 163.39 229.78 163.524 235.987C163.518 236.098 163.518 236.209 163.524 236.32C163.512 236.467 163.512 236.616 163.524 236.764C163.623 241.598 165.136 244.465 165.439 245.936C165.421 245.997 165.389 246.053 165.346 246.1C165.087 246.664 164.997 247.291 165.089 247.904C165.079 248.949 165.161 249.992 165.334 251.022C165.019 251.215 164.709 251.407 164.4 251.606C164.166 251.752 163.944 251.915 163.717 252.079C162.284 247.11 160.41 242.28 158.117 237.645C156.512 234.34 154.707 230.895 154.725 227.27C154.725 227.036 154.725 226.797 154.754 226.557C154.819 225.506 155.019 224.468 155.35 223.468C155.484 223.089 155.63 222.715 155.793 222.347C156.175 221.473 156.602 220.62 157.072 219.79C157.376 219.241 157.697 218.698 158.006 218.149C158.106 217.986 158.199 217.816 158.292 217.653L158.269 217.63ZM420.434 89.9509C420.353 89.8108 420.294 89.6706 420.23 89.5422C420.23 89.4838 420.172 89.4371 420.148 89.3787C420.021 89.4387 419.891 89.4914 419.757 89.5364C419.5 89.6356 419.238 89.729 418.969 89.8049C418.7 89.8808 418.589 89.9217 418.385 89.9684L417.865 90.1027L417.912 90.2078C418.128 90.1611 418.338 90.1202 418.554 90.0619L418.613 90.7859C418.858 90.7859 419.086 90.7508 419.308 90.7508H419.623C420.078 90.7508 420.475 90.7508 420.791 90.7508C420.668 90.4881 420.54 90.2137 420.434 89.9509Z" fill="url(#paint1_linear)"/>
<path d="M292.855 175.712L289.352 177.26C289.352 177.26 266.516 265.975 266.516 273.146C266.516 280.316 314.938 320.213 314.938 320.213L322.493 269.216C322.493 269.216 311.645 152.269 292.855 175.712Z" fill="#E8F5FF"/>
<path d="M399.07 147.493L378.838 136.936C377.705 132.105 375.694 127.524 372.906 123.419C369.946 119.145 366.01 114.947 361.106 112.758C348.71 107.199 413.539 78.0221 413.539 78.0221C414.56 81.5271 415.763 84.9766 417.141 88.3569C420.481 96.6014 426.022 107.263 433.163 110.299C445.302 115.467 399.07 147.493 399.07 147.493Z" fill="#FFC1C7"/>
<path opacity="0.1" d="M417.141 88.3569C414.371 98.099 408.611 106.725 400.674 113.016C392.736 119.308 383.023 122.947 372.906 123.419C369.946 119.145 366.01 114.947 361.106 112.758C348.71 107.199 413.539 78.0221 413.539 78.0221C414.56 81.5271 415.763 84.9766 417.141 88.3569Z" fill="black"/>
<path d="M418.963 73.6254C418.965 83.18 416.134 92.5206 410.828 100.466C405.521 108.411 397.977 114.605 389.15 118.262C380.324 121.92 370.611 122.878 361.239 121.015C351.868 119.152 343.26 114.552 336.503 107.796C329.747 101.04 325.146 92.4326 323.281 83.0616C321.417 73.6907 322.374 63.9774 326.031 55.1502C329.687 46.323 335.88 38.7785 343.824 33.4709C351.769 28.1633 361.109 25.3309 370.664 25.3321C377.014 25.3027 383.308 26.5317 389.181 28.9482C395.053 31.3647 400.389 34.9208 404.88 39.411C409.371 43.9012 412.928 49.2367 415.345 55.1092C417.762 60.9817 418.992 67.2749 418.963 73.6254Z" fill="#FFC1C7"/>
<path d="M425.935 141.292L412.762 172.028L401.143 192.429H363.949L353.101 164.537L357.497 135.611H385.903L404.243 134.577L410.438 132.51L414.432 134.776L425.935 141.292Z" fill="#575A89"/>
<path opacity="0.1" d="M421.398 100.321C421.398 100.321 429.613 102.072 422.256 108.104C414.899 114.135 389.518 133.316 389.518 133.316C389.518 133.316 398.434 141.257 396.589 150.558L426.127 134.093L431.382 107.748C431.382 107.748 431.972 99.8302 421.398 100.321Z" fill="black"/>
<path opacity="0.1" d="M395.327 133.316L376.538 136.417C376.538 136.417 380.415 150.751 378.476 154.821C378.418 154.947 378.369 155.078 378.33 155.212L370.664 175.934L376.409 192.207L396.297 165.085L389.518 154.821C389.518 154.821 396.682 145.327 400.944 142.034C405.207 138.74 395.327 133.316 395.327 133.316Z" fill="black"/>
<path d="M395.327 132.516L376.538 135.611C376.538 135.611 380.415 149.945 378.476 154.015C378.418 154.142 378.369 154.272 378.33 154.406L370.664 175.128L376.409 191.401L396.297 164.262L389.518 153.998C389.518 153.998 396.682 144.503 400.944 141.21C405.207 137.917 395.327 132.516 395.327 132.516Z" fill="#DCE6F2"/>
<path d="M422.186 98.7734C422.186 98.7734 430.402 100.525 423.039 106.557C415.676 112.588 389.518 133.316 389.518 133.316C389.518 133.316 399.204 139.71 397.365 149.005L426.904 132.545L432.159 106.2C432.159 106.2 432.743 98.283 422.186 98.7734Z" fill="#575A89"/>
<path opacity="0.1" d="M374.197 125.247C374.197 125.247 375.989 128.598 383.901 134.642C383.901 134.642 370.728 141.648 375.767 151.498L355.617 146.243L352.517 136.557L374.197 125.247Z" fill="black"/>
<path d="M373.42 124.476C373.42 124.476 375.212 127.828 383.124 133.871C383.124 133.871 369.952 140.843 374.991 150.722L354.846 145.467L351.746 135.786L373.42 124.476Z" fill="#575A89"/>
<path opacity="0.1" d="M425.935 141.292L412.762 172.028L401.166 192.429H363.949L353.101 164.537L357.492 135.611H365.391C365.263 142.361 367.727 150.29 367.569 153.238C367.301 158.085 374.798 184.231 374.798 184.231C374.798 184.231 390.487 158.855 396.682 156.596C400.577 155.177 408.827 143.371 414.426 134.776L425.935 141.292Z" fill="black"/>
<path d="M477.825 303.035L476.488 304.716C476.488 304.716 486.174 353.337 483.494 364.378C483.039 366.368 482.779 368.398 482.718 370.439V370.526C482.245 381.76 485.637 396.34 485.637 396.34C485.637 396.34 488.346 439.314 486.805 456.988H305.438C304.375 430.854 303.231 396.994 304.27 393.24C306.022 387.044 309.525 364.571 309.525 364.571L309.911 353.921C309.911 353.921 309.911 343.627 310.226 332.159C310.36 327.003 310.559 321.591 310.845 316.791C311.213 310.754 311.726 305.668 312.433 303.169C312.868 301.275 313.118 299.343 313.18 297.4C313.18 297.219 313.18 297.032 313.215 296.846C313.215 296.262 313.274 295.631 313.297 294.983C313.297 294.802 313.297 294.621 313.297 294.399C313.408 290.639 313.367 286.178 313.245 281.554C313.245 281.302 313.245 281.046 313.245 280.789C313.145 277.32 312.999 273.782 312.836 270.419C312.328 259.909 311.668 251.022 311.668 251.022L289.393 177.219L295.395 162.435L312.053 152.228L342.853 133.632C357.877 121.282 367.768 122.765 371.54 124.12C371.906 124.245 372.265 124.391 372.614 124.558C372.731 124.616 372.824 124.663 372.912 124.716C373.032 124.772 373.147 124.839 373.256 124.914C372.224 125.411 371.326 126.15 370.641 127.069C369.868 128.114 369.318 129.306 369.023 130.572C368.826 131.357 368.687 132.155 368.609 132.96C368.533 133.807 368.504 134.683 368.504 135.564C368.545 137.498 368.711 139.427 369 141.339C369 141.374 369 141.421 369 141.467C369.193 142.834 369.432 144.171 369.666 145.426C369.663 145.447 369.663 145.469 369.666 145.49C369.934 146.956 370.203 148.31 370.384 149.478C370.419 149.688 370.448 149.881 370.477 150.062C370.606 150.834 370.666 151.615 370.658 152.398C370.724 154.287 370.978 156.164 371.417 158.003C371.569 158.774 371.744 159.597 371.937 160.455C372.2 161.623 372.486 162.896 372.795 164.192C372.965 164.905 373.146 165.64 373.332 166.37C373.402 166.662 373.478 166.954 373.548 167.252L373.665 167.713C374.909 172.659 376.258 177.581 377.087 180.559C377.577 182.31 377.887 183.39 377.887 183.39C377.887 183.39 386.68 169.173 393.698 161.08C393.803 160.963 393.897 160.852 393.996 160.747C394.691 159.947 395.374 159.217 396.028 158.575C397.459 157.151 398.743 156.135 399.777 155.761C399.997 155.68 400.21 155.58 400.413 155.463C403.286 153.834 407.922 147.919 412.26 141.724C412.686 141.14 413.101 140.504 413.521 139.902C414.485 138.513 415.419 137.117 416.301 135.78C416.978 134.758 417.626 133.766 418.239 132.82C421.159 128.277 423.214 124.891 423.214 124.891L427.266 124.71L427.973 124.675H428.445L446.844 123.822C446.844 123.822 447.638 123.957 448.946 124.219C449.016 124.219 449.086 124.219 449.162 124.266C455.69 125.562 473.825 129.667 474.935 135.36C476.289 142.331 505.542 151.633 505.542 151.633C505.927 156.304 513.092 159.381 513.092 159.381C513.092 159.381 523.94 188.05 521.038 199.284C518.171 210.378 528.5 237.82 528.775 238.591L526.795 241.09L477.825 303.035Z" fill="#E8F5FF"/>
<path opacity="0.1" d="M421.392 98.2829C421.392 98.2829 439.3 93.2031 443.37 103.661C447.439 114.118 456.542 156.351 456.542 156.351C456.542 156.351 432.906 160.806 426.711 156.351C423.077 153.706 418.58 152.53 414.117 153.057L400.752 162.16L396.805 160.992C396.805 160.992 418.187 129.206 422.834 118.404C427.482 107.602 429.053 102.773 421.392 98.2829Z" fill="black"/>
<path d="M420.616 95.9474C420.616 95.9474 438.535 90.8676 442.622 101.325C446.709 111.782 455.795 154.015 455.795 154.015C455.795 154.015 432.165 158.47 425.964 154.015C422.332 151.371 417.837 150.195 413.375 150.722L399.998 159.825L396.051 158.657C396.051 158.657 417.433 126.87 422.081 116.068C426.729 105.266 428.276 100.449 420.616 95.9474Z" fill="#E8F5FF"/>
<path opacity="0.1" d="M300.411 264.428C300.411 264.428 313.776 267.721 316.298 275.277C318.821 282.832 306.419 283.025 306.419 283.025C306.419 283.025 298.863 269.66 300.411 264.428Z" fill="black"/>
<path opacity="0.1" d="M350.193 320.213C350.193 320.213 317.46 387.237 325.016 393.631C332.571 400.024 350.193 320.213 350.193 320.213Z" fill="black"/>
<path opacity="0.1" d="M395.327 270.822C395.327 270.822 421.48 335.925 416.248 345.98C411.016 356.034 427.482 345.98 427.482 345.98L395.327 270.822Z" fill="black"/>
<path d="M431.744 335.131C431.744 335.131 343.414 339.393 369.181 366.9C394.948 394.407 447.825 368.068 447.825 368.068L431.744 335.131Z" fill="#FFC1C7"/>
<path opacity="0.1" d="M418.963 73.6254C418.971 79.9606 417.727 86.235 415.302 92.0879C414.491 92.1813 413.679 92.2397 412.897 92.2747C411.729 89.7114 412.354 86.7511 412.377 83.931C412.4 81.1108 411.361 77.7943 408.646 77.0353C403.233 75.5113 399.496 85.6301 394.16 83.8025C390.072 82.4128 391.141 76.212 388.788 72.6327C386.925 69.8009 383.194 69.001 380.292 67.2259C374.121 63.4365 374.307 57.3758 371.441 51.642C368.439 45.6338 362.098 47.4088 356.592 50.953C352.412 53.6506 348.803 57.2648 344.331 59.4135C340.459 61.282 336.11 61.9593 331.818 62.0585C329.176 62.1609 326.533 61.8817 323.971 61.2294C326.984 49.8984 334.017 40.0505 343.756 33.522C353.495 26.9936 365.277 24.2303 376.903 25.7476C388.53 27.2649 399.207 32.9591 406.945 41.7683C414.683 50.5775 418.952 61.9004 418.957 73.6254H418.963Z" fill="black"/>
<path d="M356.61 49.4057C352.423 52.1033 348.821 55.7117 344.348 57.8721C340.477 59.7347 336.127 60.412 331.835 60.5112C326.581 60.628 320.923 59.7055 317.332 55.9102C314.033 52.4069 313.245 47.0176 314.64 42.4224C316.035 37.8272 319.381 34.0144 323.311 31.2526C327.24 28.4909 331.8 26.5816 334.405 22.6286C335.783 20.5383 336.448 18.0743 337.593 15.8497C341.254 8.73212 349.486 4.87846 357.445 4.39967C365.403 3.92089 373.291 6.29147 380.87 8.86057C388.449 11.4297 396.086 14.2557 404.086 14.787C407.647 15.0089 411.349 14.787 414.654 16.1358C419.097 17.94 422.011 22.2549 423.996 26.6458C426.221 31.5971 427.605 37.0039 427.371 42.4107C426.881 53.9542 419.255 65.2816 422.607 76.3404C423.494 79.2891 425.158 82.3136 424.271 85.2622C422.974 89.5655 417.422 90.5464 412.932 90.7508C411.764 88.1875 412.389 85.2214 412.412 82.407C412.435 79.5927 411.396 76.2704 408.687 75.5113C403.268 73.999 399.531 84.1003 394.206 82.2786C390.148 80.8831 391.199 74.688 388.84 71.1088C386.978 68.2711 383.241 67.477 380.345 65.702C374.173 61.9126 374.36 55.8518 371.493 50.118C368.469 44.0806 362.122 45.8557 356.61 49.4057Z" fill="#99607E"/>
<path d="M270.959 271.592L266.504 273.146C266.504 273.146 268.256 299.491 262.417 307.046C256.578 314.602 281.592 333.385 281.592 333.385C281.592 333.385 315.878 333.193 316.847 330.466C317.816 327.739 315.095 281.653 315.095 281.653C315.095 281.653 296.691 274.483 298.239 263.056C298.239 263.056 292.622 289.979 284.295 288.817C275.969 287.655 266.516 280.701 270.959 271.592Z" fill="#E8F5FF"/>
<path opacity="0.1" d="M285.819 296.968C292.311 296.968 297.573 292.156 297.573 286.219C297.573 280.282 292.311 275.469 285.819 275.469C279.328 275.469 274.066 280.282 274.066 286.219C274.066 292.156 279.328 296.968 285.819 296.968Z" fill="black"/>
<path d="M298.671 272.369C298.671 272.369 296.335 201.088 276.004 216.97C255.673 232.851 255.475 251.845 259.346 257.456C263.217 263.068 275.631 291.158 275.631 291.158C277.572 292.284 279.753 292.933 281.994 293.053C284.235 293.173 286.473 292.761 288.523 291.849C290.574 290.938 292.38 289.553 293.793 287.809C295.205 286.065 296.185 284.012 296.65 281.816L298.671 272.369Z" fill="#FFC1C7"/>
<path opacity="0.1" d="M425.497 91.8135C425.402 91.5003 425.22 91.2207 424.971 91.0077C423.967 90.091 421.807 89.7699 418.549 90.0501L418.683 91.5916C423.027 91.2179 423.885 92.0821 423.996 92.228V92.374L424.131 92.5667C424.672 93.2946 425.056 94.1277 425.257 95.0125C425.458 95.8973 425.472 96.8143 425.298 97.7049C424.347 102.464 418.502 106.253 418.443 106.294L418.303 106.376L418.216 106.51C415.693 110.253 401.429 120.815 397.698 123.548L397.371 123.174C395.701 124.622 381.022 137.473 380.228 142.396C379.714 145.484 376.234 146.681 374.973 147.014C373.642 146.004 369.321 142.565 367.073 138.711C364.965 135.085 373.449 128.009 374.196 125.247L373.029 124.05C372.906 124.494 362.011 134.677 365.041 139.879C367.47 144.054 371.908 147.627 373.461 148.807C372.964 153.314 369.876 179.782 365.129 186.053C359.231 193.848 354.274 233.132 354.823 246.847C355.308 259.033 352.126 282.05 341.499 291.935C339.659 293.721 337.44 295.069 335.006 295.878C332.573 296.687 329.988 296.936 327.445 296.606H327.316H327.188C327.036 296.606 311.621 298.183 298.671 287.264C288.073 278.348 282.071 263.797 280.821 244.004H280.564L280.459 238.241C283.333 237.792 285.92 236.248 287.679 233.931C289.437 231.615 290.229 228.707 289.888 225.819C289.548 222.931 288.101 220.287 285.852 218.443C283.603 216.599 280.727 215.699 277.828 215.931C274.929 216.164 272.233 217.511 270.307 219.689C268.38 221.867 267.373 224.708 267.496 227.613C267.62 230.519 268.865 233.263 270.97 235.27C273.075 237.277 275.875 238.39 278.783 238.375H278.912L279.017 244.103L278.503 244.138C279.788 264.574 286.094 279.691 297.188 289.027C305.62 296.015 316.39 299.539 327.322 298.889C328.098 298.974 328.877 299.017 329.658 299.018C334.668 299.043 339.489 297.104 343.087 293.617C354.28 283.194 357.684 259.331 357.153 246.73C356.569 232.197 361.771 194.327 366.991 187.431C372.106 180.664 375.207 154.295 375.75 149.186C377.601 148.667 381.787 147.026 382.499 142.763C383.013 139.681 392.817 130.181 398.848 124.92L398.667 124.71C401.914 122.339 412.009 114.865 417.013 110.066C418.566 108.577 420.108 107.088 421.719 105.669C423.658 103.952 426.122 101.226 426.77 98.0027C426.991 96.9387 426.992 95.8409 426.773 94.7765C426.554 93.7122 426.12 92.7038 425.497 91.8135Z" fill="black"/>
<path d="M373.262 148.439C373.017 148.27 367.202 144.106 364.288 139.097C361.263 133.894 372.159 123.717 372.276 123.273L373.443 124.47C372.702 127.226 364.218 134.309 366.326 137.929C368.982 142.501 374.576 146.5 374.634 146.541L373.262 148.439Z" fill="#353146"/>
<path d="M396.939 124.681L396.028 123.425C396.215 123.291 414.555 110.025 417.445 105.733L417.538 105.605L417.673 105.517C417.731 105.476 423.576 101.693 424.528 96.9284C424.703 96.0388 424.69 95.1223 424.489 94.2382C424.288 93.354 423.903 92.522 423.36 91.796L423.226 91.5975V91.4573C423.109 91.3055 422.25 90.4472 417.906 90.8209L417.772 89.2736C421.036 88.9933 423.19 89.3145 424.195 90.2312C424.445 90.4463 424.629 90.7276 424.726 91.0428C425.357 91.9305 425.8 92.9382 426.027 94.0037C426.254 95.0692 426.26 96.1698 426.046 97.2378C425.398 100.467 422.939 103.193 420.995 104.904C419.389 106.323 417.842 107.824 416.295 109.301C410.427 114.924 397.581 124.219 396.939 124.681Z" fill="#E8F5FF"/>
<path d="M279.706 236.208L278.159 236.236L278.331 245.641L279.878 245.613L279.706 236.208Z" fill="#E8F5FF"/>
<path d="M278.03 237.634C284.27 237.634 289.328 232.575 289.328 226.335C289.328 220.095 284.27 215.037 278.03 215.037C271.79 215.037 266.732 220.095 266.732 226.335C266.732 232.575 271.79 237.634 278.03 237.634Z" fill="#E23E57"/>
<path d="M278.03 235.718C283.212 235.718 287.413 231.517 287.413 226.335C287.413 221.153 283.212 216.952 278.03 216.952C272.848 216.952 268.647 221.153 268.647 226.335C268.647 231.517 272.848 235.718 278.03 235.718Z" fill="#E8F5FF"/>
<path d="M328.922 298.264C328.142 298.266 327.362 298.225 326.586 298.142C315.656 298.786 304.887 295.262 296.452 288.28C285.358 278.938 279.064 263.838 277.767 243.385L280.103 243.239C281.353 263.033 287.355 277.589 297.958 286.499C310.909 297.389 326.318 295.841 326.47 295.841H326.598H326.726C329.27 296.169 331.856 295.92 334.29 295.111C336.724 294.302 338.945 292.955 340.786 291.17C351.407 281.285 354.59 258.268 354.105 246.082C353.521 232.355 358.478 193.071 364.381 185.282C369.549 178.457 372.754 147.692 372.789 147.382L372.877 146.506L373.741 146.354C373.794 146.354 378.838 145.397 379.469 141.625C380.286 136.709 394.942 123.857 396.606 122.403L398.13 124.155C392.075 129.41 382.272 138.916 381.781 142.005C381.069 146.279 376.882 147.913 375.037 148.427C374.453 153.542 371.376 179.905 366.279 186.672C361.059 193.568 355.857 231.439 356.441 245.971C356.943 258.572 353.574 282.441 342.38 292.858C338.776 296.354 333.943 298.296 328.922 298.264Z" fill="#353146"/>
<g opacity="0.1">
<path opacity="0.1" d="M423.938 59.8223C424.895 56.2839 426.052 52.7222 426.857 49.1371C425.894 52.7397 424.732 56.2839 423.938 59.8223Z" fill="black"/>
<path opacity="0.1" d="M414.169 87.627C413.002 85.0638 413.626 82.0976 413.65 79.2833C413.673 76.469 412.634 73.1758 409.925 72.3876C404.506 70.8753 400.769 80.9824 395.444 79.1548C391.357 77.7593 392.437 71.5643 390.078 67.9851C388.216 65.1474 384.485 64.3533 381.589 62.5783C375.411 58.7888 375.598 52.7281 372.737 46.9943C369.73 40.9803 363.395 42.7553 357.883 46.3053C353.696 49.0029 350.094 52.6171 345.621 54.7717C341.75 56.6343 337.4 57.3116 333.108 57.4109C327.883 57.5335 322.195 56.6051 318.605 52.8098C315.837 49.8904 314.839 45.6105 315.411 41.5992C315.311 41.8736 315.224 42.1481 315.136 42.4225C313.735 47.0177 314.552 52.4186 317.828 55.9103C321.419 59.7055 327.106 60.6281 332.332 60.5113C336.629 60.412 340.973 59.7347 344.85 57.8721C349.335 55.7118 352.937 52.1033 357.112 49.4058C362.624 45.8557 368.965 44.0807 371.966 50.0948C374.827 55.8285 374.646 61.8893 380.818 65.6787C383.737 67.4304 387.445 68.2478 389.313 71.0855C391.649 74.6764 390.615 80.8598 394.679 82.2553C399.998 84.077 403.735 73.9758 409.154 75.488C411.863 76.2471 412.908 79.5752 412.879 82.3837C412.85 85.1922 412.243 88.1642 413.399 90.7275C417.889 90.5231 423.442 89.5597 424.744 85.2389C424.923 84.6189 425.006 83.9749 424.989 83.3296C423.091 86.6052 418.21 87.446 414.169 87.627Z" fill="black"/>
</g>
<path opacity="0.1" d="M519.695 231.497L526.474 238.667C526.474 238.667 531.899 278.179 534.608 281.875C537.317 285.571 543.716 300.273 537.708 311.314C537.708 311.314 535.77 317.323 536.932 319.839C538.094 322.356 528.22 334.95 528.22 334.95C528.22 334.95 515.24 346.569 512.525 348.315C509.81 350.061 495.482 364.004 490.641 364.197C485.801 364.39 484.218 370.398 484.218 370.398L456.904 371.367C456.904 371.367 441.816 370.579 438.535 372.71C438.535 372.71 440.287 349.658 423.43 334.547L444.929 326.799C444.929 326.799 453.068 323.296 455.585 319.635C457.168 317.39 459.414 315.698 462.007 314.794C462.007 314.794 468.01 310.532 468.202 308.208C468.395 305.884 475.542 303.035 475.542 303.035L471.495 268.498L473.627 211.16C473.627 211.16 480.406 163.118 494.74 165.833C509.074 168.548 519.695 231.497 519.695 231.497Z" fill="black"/>
<path d="M522.031 231.497L528.81 238.667C528.81 238.667 534.234 278.179 536.943 281.875C539.653 285.571 546.052 300.273 540.044 311.314C540.044 311.314 538.111 317.323 539.273 319.839C540.435 322.356 530.556 334.95 530.556 334.95C530.556 334.95 517.576 346.569 514.861 348.315C512.146 350.061 497.817 364.004 492.977 364.197C488.136 364.39 486.554 370.398 486.554 370.398L459.24 371.367C459.24 371.367 444.14 370.579 440.871 372.71C440.871 372.71 442.622 349.658 425.765 334.547L447.264 326.799C447.264 326.799 455.404 323.296 457.92 319.635C459.503 317.39 461.749 315.698 464.343 314.794C464.343 314.794 470.345 310.532 470.538 308.208C470.731 305.884 477.877 303.035 477.877 303.035L473.831 268.498L475.962 211.16C475.962 211.16 482.741 163.118 497.076 165.833C511.41 168.548 522.031 231.497 522.031 231.497Z" fill="#E8F5FF"/>
<path opacity="0.1" d="M496.83 289.418C496.83 289.418 516.782 284.164 522.013 290.586C527.245 297.009 496.83 289.418 496.83 289.418Z" fill="black"/>
<path opacity="0.1" d="M492.183 298.229C498.962 302.976 519.882 303.169 519.882 303.169L492.183 298.229Z" fill="black"/>
<path opacity="0.1" d="M502.447 321.959C503.031 322.151 516.829 336.877 522.621 332.422C528.413 327.967 502.447 321.959 502.447 321.959Z" fill="black"/>
<path opacity="0.1" d="M316.631 198.373C316.631 198.373 320.683 226.271 318.686 237.634C316.689 248.996 323.976 263.073 323.976 263.073L316.631 198.373Z" fill="black"/>
<path d="M226.923 209.718C222.251 213.379 218.842 222.044 216.372 231.567C212.063 248.178 210.655 267.441 210.655 267.441C210.655 267.441 173.462 258.916 176.171 255.045C177.876 252.61 175.587 234.264 173.678 220.963C172.539 213.104 171.523 207.003 171.523 207.003C171.523 207.003 239.71 199.64 226.923 209.718Z" fill="#FFCCD0"/>
<path opacity="0.1" d="M226.923 208.941C222.251 212.608 218.842 221.267 216.372 230.79C208.961 233.041 201.08 233.243 193.564 231.378C186.047 229.512 179.176 225.647 173.678 220.193C172.539 212.328 171.523 206.226 171.523 206.226C171.523 206.226 239.71 198.869 226.923 208.941Z" fill="black"/>
<path d="M246.915 188.073C246.919 198.229 243.33 208.058 236.783 215.822C230.236 223.586 221.154 228.784 211.144 230.495C201.133 232.206 190.84 230.321 182.086 225.173C173.332 220.025 166.681 211.946 163.311 202.366C159.941 192.786 160.069 182.322 163.672 172.827C167.275 163.332 174.12 155.418 182.998 150.485C191.875 145.552 202.211 143.918 212.176 145.873C222.142 147.829 231.095 153.246 237.45 161.168C243.574 168.798 246.913 178.289 246.915 188.073Z" fill="#FFCCD0"/>
<path opacity="0.1" d="M280.827 456.988H268.565L267.532 435.332L266.452 412.916C266.452 412.916 269.237 412.502 273.674 411.883L275.467 411.644H275.613C276.582 416.192 277.54 420.863 278.462 425.528C279.998 433.811 280.797 442.212 280.85 450.636C280.85 451.22 280.85 451.803 280.85 452.352C280.885 453.911 280.85 455.47 280.827 456.988Z" fill="black"/>
<path d="M278.474 456.988H124.701C125.367 455.476 125.811 454.559 125.811 454.559C125.811 454.559 138.113 400.737 144.367 377.965C144.369 377.946 144.369 377.926 144.367 377.907C145.148 374.813 146.091 371.763 147.193 368.769C147.264 368.565 147.356 368.37 147.467 368.185C150.562 363.152 154.439 357.727 149.015 349.979C143.59 342.231 145.511 308.138 145.511 308.138C145.511 308.138 152.097 279.078 159.069 263.581C160.127 261.181 161.629 259.002 163.495 257.159C164.102 256.565 164.749 256.015 165.433 255.512C165.953 255.121 166.495 254.761 167.057 254.432L167.168 254.362C170.096 252.701 173.348 251.692 176.702 251.402C179.085 251.153 181.49 251.219 183.855 251.6C195.159 253.258 204.209 256.032 211.403 259.191C230.899 267.756 236.802 279.235 236.919 279.475L236.965 279.574C237.748 281.402 249.192 308.12 253.314 320.586C254.383 323.833 254.967 326.116 254.733 326.741C253.565 329.835 263.643 368.576 263.643 368.576C263.643 368.576 268.314 387.26 272.985 409.162C273.19 410.073 273.383 410.984 273.569 411.906C274.404 415.883 275.233 419.935 276.033 423.981C277.583 432.32 278.382 440.782 278.421 449.263C278.507 451.907 278.525 454.481 278.474 456.988Z" fill="#FF748E"/>
<path opacity="0.1" d="M175.786 238.077C175.786 238.077 165.176 233.99 165.305 240.191C165.433 246.392 167.892 249.358 167.115 250.263C166.338 251.168 167.5 256.592 167.5 256.592C167.5 256.592 181.835 256.592 188.421 259.559C195.007 262.525 219.285 268.469 222.386 270.279C225.486 272.089 236.983 280.205 236.983 280.205L238.016 264.837C238.016 264.837 226.134 255.022 206.638 249.989C187.142 244.955 175.786 238.077 175.786 238.077Z" fill="black"/>
<path d="M175.786 237.301C175.786 237.301 165.176 233.214 165.305 239.414C165.433 245.615 167.892 248.581 167.115 249.486C166.338 250.391 167.5 255.816 167.5 255.816C167.5 255.816 181.835 255.816 188.421 258.788C195.007 261.76 219.285 267.698 222.386 269.502C225.486 271.306 236.983 279.428 236.983 279.428L238.028 264.107C238.028 264.107 226.146 254.292 206.65 249.259C187.154 244.226 175.786 237.301 175.786 237.301Z" fill="#FF748E"/>
<path opacity="0.1" d="M207.812 274.284C207.812 274.284 228.085 296.232 227.051 302.311C226.018 308.389 207.812 274.284 207.812 274.284Z" fill="black"/>
<path opacity="0.1" d="M174.881 353.57C174.881 353.57 160.021 367.262 155.642 368.039C151.262 368.816 158.999 371.396 164.032 369.335C169.065 367.274 179.797 361.85 179.797 361.85L174.881 353.57Z" fill="black"/>
<path d="M284.511 456.988H249.858C245.011 452.784 240.428 448.89 237.508 446.548C232.837 442.8 229.468 437.282 227.32 432.845C226.835 431.834 226.415 430.889 226.058 430.03C225.421 428.552 224.859 427.041 224.377 425.505L250.039 410.266C251.457 411.472 252.789 412.775 254.027 414.166L254.336 414.522C255.761 416.204 257.016 418.113 257.127 419.678C257.256 421.5 262.324 428.547 267.503 435.314C272.758 442.198 278.141 448.779 278.497 449.223C278.497 449.223 279.385 450.431 280.833 452.288C281.855 453.631 283.116 455.242 284.511 456.988Z" fill="#FFCCD0"/>
<path opacity="0.1" d="M237.45 161.168C236.218 163.947 235.114 166.831 234.951 169.926C234.49 178.859 235.237 198.834 225.346 203.318C220.447 205.526 215.204 200.679 209.832 200.563C205.967 200.481 202.423 202.933 200.064 205.999C197.705 209.064 196.239 212.702 194.528 216.17C192.971 219.318 191.177 222.343 189.163 225.22C188.56 226.101 187.897 226.938 187.177 227.725C181.146 225.18 175.775 221.292 171.475 216.357C167.174 211.422 164.056 205.57 162.359 199.248C160.662 192.926 160.431 186.299 161.683 179.874C162.935 173.449 165.637 167.394 169.583 162.171C173.529 156.948 178.616 152.695 184.455 149.736C190.294 146.776 196.732 145.189 203.277 145.095C209.823 145 216.303 146.401 222.225 149.19C228.147 151.98 233.355 156.084 237.45 161.191V161.168Z" fill="black"/>
<path d="M234.174 168.349C233.707 177.283 234.461 197.258 224.564 201.736C219.665 203.943 214.422 199.103 209.05 198.986C205.184 198.898 201.646 201.357 199.281 204.416C196.917 207.476 195.463 211.119 193.746 214.593C192.188 217.741 190.395 220.767 188.38 223.644C187.177 225.349 185.846 227.059 183.995 228.017C180.772 229.699 176.866 228.753 173.409 227.672C168.925 226.259 164.507 224.667 160.155 222.896C160.255 222.239 160.306 221.576 160.307 220.911C160.178 221.156 160.038 221.384 159.898 221.629L159.624 222.108C159.127 222.984 158.643 223.86 158.199 224.759C158.03 225.103 157.866 225.459 157.72 225.816C157.133 227.141 156.764 228.553 156.628 229.996C156.331 233.891 158.252 237.587 159.957 241.09C166.514 254.642 170.566 270.489 165.632 284.707C163.495 290.89 159.793 296.384 157.09 302.357C152.364 312.937 150.973 324.705 153.102 336.094C154.45 343.171 157.154 350.178 156.488 357.354C155.32 369.703 144.67 378.893 134.003 385.211C128.24 388.609 121.186 391.634 115.067 388.948C118.968 384.394 119.972 378.093 120.813 372.149C123.113 355.937 125.42 339.717 127.732 323.488C128.654 317.031 129.575 310.573 130.494 304.115C132.21 291.982 133.95 279.714 132.876 267.505C132.093 258.508 129.886 248.955 133.787 240.81C135.848 236.495 139.52 232.922 140.665 228.274C141.605 224.496 140.729 220.479 141.348 216.631C141.687 214.88 142.26 213.184 143.053 211.586C144.062 209.419 145.38 207.409 146.965 205.619C145.4 205.164 143.94 204.539 143.053 203.231C145.564 201.596 145.943 197.912 144.805 195.144C143.666 192.376 141.389 190.269 139.339 188.085C137.29 185.901 135.316 183.355 135.06 180.378C134.563 174.708 140.227 170.317 141.225 164.724C142.236 159.031 138.242 153.495 138.563 147.732C138.937 140.767 145.336 135.704 151.654 132.767C161.187 128.354 171.719 126.541 182.179 127.512C190.692 128.318 198.931 130.951 207.421 131.973C212.541 132.557 217.732 132.616 222.818 133.515C227.903 134.414 233.001 136.312 236.58 140.043C246.016 149.881 234.712 157.98 234.174 168.349Z" fill="#FFE0D0"/>
<path opacity="0.1" d="M226.28 432.85C223.303 431.56 217.884 432.331 208.583 429.499C199.281 426.667 197.489 413.868 197.489 413.868V413.827C197.378 413.535 196.514 411.632 190.663 404.964C184.2 397.601 170.227 360.413 170.227 360.413C170.227 360.413 157.837 347.107 158.228 342.202C158.619 337.297 156.027 324.247 156.284 309.65C156.541 295.053 184.176 285.372 184.176 285.372C237.386 275.942 224.856 337.286 223.437 341.933C222.018 346.581 229.381 359.135 229.381 359.135C228.341 364.6 233.643 373.06 233.643 373.06C233.643 373.06 234.928 380.546 235.19 383.389C235.205 383.521 235.234 383.65 235.278 383.775C236.131 386.455 243.079 388.884 245.905 390.361C248.877 391.914 258.435 405.472 258.435 405.472C260.496 415.427 229.247 434.158 226.28 432.85Z" fill="black"/>
<path d="M227.828 430.515C224.856 429.219 219.431 429.995 210.136 427.157C200.84 424.32 199.042 411.533 199.042 411.533V411.492C198.937 411.194 198.067 409.296 192.216 402.628C185.753 395.266 171.78 358.072 171.78 358.072C171.78 358.072 159.39 344.771 159.776 339.866C160.161 334.962 157.58 321.912 157.837 307.326C158.094 292.741 185.712 283.066 185.712 283.066C238.921 273.636 226.391 334.979 224.972 339.627C223.554 344.275 230.916 356.828 230.916 356.828C229.877 362.293 235.179 370.754 235.179 370.754C235.179 370.754 236.463 378.239 236.732 381.083C236.742 381.215 236.769 381.344 236.814 381.468C237.666 384.148 244.614 386.577 247.446 388.055C250.412 389.602 259.976 403.166 259.976 403.166C262.049 413.103 230.8 431.834 227.828 430.515Z" fill="#FF748E"/>
<path opacity="0.1" d="M186.763 315.092C186.763 315.092 210.007 339.615 216.074 339.615C222.141 339.615 186.763 315.092 186.763 315.092Z" fill="black"/>
<path d="M227.828 430.515C224.856 429.219 219.431 429.995 210.136 427.157C200.84 424.32 199.042 411.533 199.042 411.533V411.492C205.202 407.405 220.803 395.861 226.952 391.64C231.278 388.679 234.811 384.329 236.878 381.445C237.73 384.125 244.679 386.554 247.51 388.031C250.477 389.578 260.041 403.142 260.041 403.142C262.049 413.103 230.8 431.834 227.828 430.515Z" fill="#FF748E"/>
<g opacity="0.1">
<path opacity="0.1" d="M143.088 203.295C143.117 203.342 143.158 203.383 143.193 203.429C143.368 203.208 143.549 202.986 143.736 202.775C143.537 202.969 143.32 203.143 143.088 203.295Z" fill="black"/>
<path opacity="0.1" d="M156.634 230.061C156.879 226.82 158.614 223.965 160.237 221.115C159.174 220.707 158.111 220.292 157.06 219.86C157.161 219.205 157.211 218.543 157.212 217.881C155.572 220.8 153.785 223.673 153.534 226.96C153.236 230.86 155.157 234.551 156.862 238.054C163.425 251.6 167.471 267.447 162.537 281.67C160.394 287.848 156.698 293.348 153.995 299.321C149.271 309.899 147.882 321.665 150.013 333.052C151.35 340.135 154.059 347.136 153.394 354.312C152.226 366.661 141.582 375.851 130.908 382.163C126.547 384.744 121.449 387.109 116.574 386.939C116.122 387.666 115.619 388.359 115.067 389.012C121.192 391.716 128.24 388.674 134.003 385.264C144.682 378.958 155.35 369.791 156.517 357.418C157.183 350.242 154.474 343.241 153.131 336.159C150.999 324.773 152.384 313.007 157.101 302.428C159.787 296.46 163.524 290.954 165.644 284.777C170.577 270.553 166.525 254.706 159.968 241.16C158.269 237.634 156.336 233.961 156.634 230.061Z" fill="black"/>
<path opacity="0.1" d="M236.568 140.113C235.994 139.523 235.377 138.977 234.723 138.478C241.8 147.656 231.582 155.457 231.074 165.337C230.619 174.27 231.366 194.251 221.469 198.723C216.576 200.936 211.327 196.09 205.961 195.973C202.09 195.891 198.552 198.35 196.187 201.409C193.822 204.469 192.368 208.112 190.657 211.58C189.097 214.728 187.301 217.753 185.286 220.631C184.118 222.342 182.752 224.046 180.895 225.01C177.683 226.686 173.777 225.746 170.315 224.66C166.948 223.601 163.612 222.433 160.307 221.156C160.3 221.764 160.249 222.371 160.155 222.972C164.511 224.747 168.931 226.339 173.415 227.748C176.872 228.834 180.778 229.774 183.995 228.099C185.846 227.135 187.189 225.424 188.386 223.714C190.403 220.84 192.197 217.817 193.752 214.669C195.469 211.201 196.917 207.552 199.287 204.492C201.658 201.433 205.19 198.98 209.056 199.062C214.427 199.179 219.677 204.025 224.57 201.812C234.466 197.339 233.713 177.359 234.174 168.425C234.712 158.038 246.016 149.945 236.568 140.113Z" fill="black"/>
</g>
<path opacity="0.1" d="M159.63 222.114C159.133 222.99 158.649 223.865 158.205 224.765C158.036 225.109 157.872 225.465 157.726 225.821C154.667 222.738 147.216 215.411 143.059 213.139C144.07 210.973 145.387 208.963 146.971 207.172C146.971 207.172 156.879 212.41 159.63 222.114Z" fill="black"/>
<path d="M159.904 221.635C157.609 211.248 146.971 205.625 146.971 205.625C145.386 207.415 144.068 209.425 143.059 211.592C147.444 213.992 155.525 222.038 158.205 224.765L159.904 221.635Z" fill="#FF748E"/>
<defs>
<linearGradient id="paint0_linear" x1="426.256" y1="55.7001" x2="426.256" y2="44.9682" gradientUnits="userSpaceOnUse">
<stop stop-color="#808080" stop-opacity="0.25"/>
<stop offset="0.54" stop-color="#808080" stop-opacity="0.12"/>
<stop offset="1" stop-color="#808080" stop-opacity="0.1"/>
</linearGradient>
<linearGradient id="paint1_linear" x1="267871" y1="384492" x2="267871" y2="26807.6" gradientUnits="userSpaceOnUse">
<stop stop-color="#808080" stop-opacity="0.25"/>
<stop offset="0.54" stop-color="#808080" stop-opacity="0.12"/>
<stop offset="1" stop-color="#808080" stop-opacity="0.1"/>
</linearGradient>
</defs>
</svg>
