<svg width="679" height="480" viewBox="0 0 679 480" fill="none" xmlns="http://www.w3.org/2000/svg">
<path opacity="0.1" d="M225.992 479.73C258.993 479.73 285.745 475.433 285.745 470.133C285.745 464.833 258.993 460.536 225.992 460.536C192.992 460.536 166.24 464.833 166.24 470.133C166.24 475.433 192.992 479.73 225.992 479.73Z" fill="#E23E57"/>
<path opacity="0.1" d="M550.8 480C591.979 480 625.362 475.703 625.362 470.403C625.362 465.103 591.979 460.806 550.8 460.806C509.62 460.806 476.238 465.103 476.238 470.403C476.238 475.703 509.62 480 550.8 480Z" fill="#E23E57"/>
<path opacity="0.1" d="M9.19272 207.397H71.429V292.224H13.749C13.5957 293.095 13.4485 293.972 13.2891 294.849H71.429V363.26C71.3247 363.23 71.2327 363.193 71.1346 363.156C69.4912 362.506 67.86 361.819 66.2288 361.083L65.1863 360.611C63.5511 359.838 61.9158 359.021 60.2805 358.158C59.7102 357.858 59.1399 357.545 58.5758 357.226C49.4975 352.141 41.2503 345.697 34.1203 338.118C33.9118 337.916 33.7156 337.701 33.5071 337.505C32.5137 336.425 31.5387 335.334 30.5943 334.218L29.5518 332.991C28.4357 331.624 27.3565 330.22 26.3078 328.797C26.1545 328.588 26.0074 328.38 25.8479 328.184C21.5832 322.271 18.0422 315.868 15.3004 309.112C15.2146 308.91 15.141 308.689 15.0613 308.499C14.2191 306.332 13.473 304.145 12.823 301.938C12.5409 301.012 12.2711 300.098 12.0381 299.135C11.9522 298.853 11.8786 298.577 11.8112 298.301C8.32807 284.706 7.91721 270.583 7.91721 256.559C7.91721 254.922 7.91721 253.278 7.91721 251.653C7.91721 245.981 7.98467 240.272 8.08278 234.569C8.08278 233.091 8.14411 231.619 8.17477 230.135C8.26062 226.37 8.38327 222.605 8.5427 218.839C8.5795 217.791 8.62855 216.748 8.68375 215.706C8.68375 215.105 8.71441 214.504 8.77573 213.903C8.9229 211.72 9.04555 209.555 9.19272 207.397Z" fill="#E23E57"/>
<path opacity="0.1" d="M71.429 112.948H37.2907C42.8401 104.262 48.9034 95.9153 55.4483 87.9526C60.5197 81.7223 65.8732 75.6513 71.429 69.8011V112.948Z" fill="#E23E57"/>
<path opacity="0.1" d="M71.429 115.572V204.772H9.38898C9.38898 204.515 9.4319 204.251 9.4503 203.993C9.50549 203.288 9.56068 202.583 9.622 201.884C9.68946 201.062 9.76304 200.234 9.84276 199.431C9.92248 198.628 10.0083 197.646 10.1003 196.757C10.1923 195.868 10.2782 194.967 10.3824 194.077C10.4867 193.188 10.5786 192.299 10.689 191.416C10.7994 190.533 10.8975 189.638 11.014 188.755C11.106 188.019 11.2041 187.289 11.3022 186.553C11.4433 185.517 11.5905 184.474 11.7499 183.444C11.7499 183.291 11.7928 183.131 11.8173 182.984C12.9366 175.443 14.4617 167.967 16.3859 160.589C18.4001 152.85 20.9721 145.267 24.0819 137.9C27.3869 130.193 31.2567 122.74 35.6596 115.603L71.429 115.572Z" fill="#E23E57"/>
<path opacity="0.1" d="M86.2874 207.391V292.224H219.216V207.391H86.2874ZM86.2874 294.843V367.694C87.0478 367.853 87.802 368.007 88.5502 368.135C89.5681 368.332 90.5799 368.509 91.6163 368.663C91.8125 368.693 92.0149 368.724 92.2295 368.743C92.6343 368.81 93.0512 368.865 93.456 368.92C94.4801 369.061 95.498 369.178 96.5221 369.27C97.0066 369.319 97.4971 369.362 97.9877 369.399L99.1712 369.491C99.8151 369.54 100.453 369.577 101.084 369.595C101.477 369.595 101.869 369.632 102.274 369.644C102.581 369.644 102.887 369.644 103.206 369.644C103.525 369.644 103.979 369.644 104.365 369.644C104.893 369.644 105.42 369.644 105.941 369.644H106.646C107.174 369.644 107.701 369.644 108.222 369.595H108.259C108.621 369.595 108.989 369.595 109.357 369.546C109.459 369.552 109.561 369.552 109.664 369.546C109.97 369.546 110.277 369.546 110.571 369.503H110.786L112.84 369.343C113.515 369.282 114.195 369.202 114.882 369.129L116.28 368.963C121.968 368.166 127.593 366.97 133.113 365.382C145.513 361.923 157.642 357.085 170.036 353.541C186.059 348.972 203.763 346.728 219.247 352.314V294.843H86.2874ZM219.216 112.948V0.0100286C204.663 -0.147646 190.149 1.55455 176.027 5.07527C142.367 13.5317 112.165 31.8732 86.2874 55.2984V112.942H92.9593V115.56H86.2874V204.772H219.216V115.566H120.352V112.948H219.216ZM389.957 74.799C381.629 74.5047 373.351 71.8678 365.863 67.796C351.544 60.008 340.108 47.9827 327.328 37.8338C300.775 16.6959 267.845 3.9408 234.062 0.77656V112.948H423.825L424.297 112.451L389.957 74.799ZM407.243 71.7329L425.573 91.8467V66.4592C419.434 67.2196 414.056 69.0286 407.268 71.7084L407.243 71.7329ZM425.573 385.784V294.843H386.516C386.412 294.456 386.308 294.064 386.185 293.671C386.302 294.064 386.4 294.456 386.51 294.843H234.087V360.611C235.534 361.684 236.963 362.813 238.38 363.959C239.906 365.186 241.415 366.48 242.93 367.749L244.457 369.012C245.186 369.626 245.922 370.239 246.664 370.815C248.136 372.009 249.622 373.186 251.122 374.347C251.864 374.961 252.625 375.513 253.379 376.089C265.354 385.244 277.985 393.506 291.172 400.808C294.128 402.443 297.11 404.04 300.119 405.597C302.124 406.621 304.142 407.639 306.166 408.627C309.207 410.111 312.273 411.542 315.364 412.919C343.858 425.71 373.989 434.487 404.895 439C411.759 440.014 418.649 440.811 425.567 441.391V385.778H426.18L425.573 385.784ZM234.087 115.566V204.772H425.597V115.566H234.087ZM234.087 207.391V292.224H425.597V207.391H234.087ZM440.462 66.3488V94.6675L463.856 68.9979C456.105 67.7469 448.307 66.8537 440.462 66.3181V66.3488ZM440.462 207.421V292.224H626.729V207.391L440.462 207.421ZM626.048 392.517L626.705 294.843H440.462V442.366C452.46 442.87 464.476 442.727 476.458 441.937H476.667C482.39 441.577 488.087 441.054 493.757 440.367H493.886C524.137 436.847 553.717 428.954 581.7 416.936L626.048 392.517ZM662.646 221.36C661.947 219.71 661.217 218.073 660.475 216.454C659.089 213.388 657.623 210.408 656.115 207.427H641.581V292.224H678.326C678.308 268.21 672.23 243.681 662.664 221.329L662.646 221.36ZM641.581 294.873V378.885C651.933 368.963 660.677 357.612 666.975 344.637C674.548 329.012 678.013 312.093 678.295 294.861L641.581 294.873ZM641.581 182.702V204.778H654.754C650.769 197.179 646.378 189.799 641.6 182.672L641.581 182.702ZM515.257 82.9917C514.288 82.6238 513.319 82.2497 512.344 81.8879C502.061 78.0904 491.553 74.9324 480.88 72.432L445.08 111.721L444.393 112.451L444.853 112.954H572.269C554.523 100.739 535.392 90.6708 515.275 82.9611L515.257 82.9917ZM576.003 115.597H443.074L440.462 117.988V204.772H463.36H463.397H626.754V162.736C611.976 144.864 594.92 129.005 576.022 115.566L576.003 115.597Z" fill="#E23E57"/>
<path opacity="0.1" d="M71.429 160.565V204.772H9.38898C9.38898 204.515 9.4319 204.251 9.4503 203.993C9.50549 203.288 9.56068 202.583 9.622 201.884C9.68946 201.062 9.76304 200.234 9.84276 199.431C9.92248 198.628 10.0083 197.646 10.1003 196.757C10.1923 195.868 10.2782 194.967 10.3824 194.077C10.4867 193.188 10.5786 192.299 10.689 191.416C10.7994 190.533 10.8975 189.638 11.014 188.755C11.106 188.019 11.2041 187.289 11.3022 186.553C11.4433 185.517 11.5905 184.474 11.7499 183.444C11.7499 183.291 11.7928 183.131 11.8173 182.984C12.9366 175.443 14.4617 167.967 16.3859 160.589L71.429 160.565Z" fill="#E23E57"/>
<path opacity="0.1" d="M9.19272 207.397H71.429V292.224H13.749C13.5957 293.095 13.4485 293.972 13.2891 294.849H71.429V363.26C71.3247 363.23 71.2327 363.193 71.1346 363.156C69.4912 362.506 67.86 361.819 66.2288 361.083L65.1863 360.611C63.5511 359.838 61.9158 359.021 60.2805 358.158C59.7102 357.858 59.1399 357.545 58.5758 357.226C49.4975 352.141 41.2503 345.697 34.1203 338.118C33.9118 337.916 33.7156 337.701 33.5071 337.505C32.5137 336.425 31.5387 335.334 30.5943 334.218L29.5518 332.991C28.4357 331.624 27.3565 330.22 26.3078 328.797C26.1545 328.588 26.0074 328.38 25.8479 328.184C21.5832 322.271 18.0422 315.868 15.3004 309.112C15.2146 308.91 15.141 308.689 15.0613 308.499C14.2191 306.332 13.473 304.145 12.823 301.938C12.5409 301.012 12.2711 300.098 12.0381 299.135C11.9522 298.853 11.8786 298.577 11.8112 298.301C8.32807 284.706 7.91721 270.583 7.91721 256.559C7.91721 254.922 7.91721 253.278 7.91721 251.653C7.91721 245.981 7.98467 240.272 8.08278 234.569C8.08278 233.091 8.14411 231.619 8.17477 230.135C8.26062 226.37 8.38327 222.605 8.5427 218.839C8.5795 217.791 8.62855 216.748 8.68375 215.706C8.68375 215.105 8.71441 214.504 8.77573 213.903C8.9229 211.72 9.04555 209.555 9.19272 207.397Z" fill="#E23E57"/>
<path opacity="0.1" d="M133.083 128.34V204.772H86.2874V128.34H92.9593V102.462H120.346V128.34H133.083Z" fill="#E23E57"/>
<path opacity="0.1" d="M133.083 207.391H86.2935V292.218H133.083V207.391Z" fill="#E23E57"/>
<path opacity="0.1" d="M86.2874 294.849H133.083V365.37C127.563 366.956 121.938 368.151 116.25 368.945L114.851 369.117C114.165 369.196 113.484 369.264 112.809 369.331C112.135 369.399 111.436 369.448 110.755 369.491H110.54C110.246 369.491 109.927 369.528 109.639 369.534H109.326C108.958 369.534 108.59 369.571 108.222 369.583C107.701 369.613 107.18 369.62 106.646 369.626C106.42 369.626 106.205 369.626 105.978 369.626C105.451 369.626 104.929 369.626 104.402 369.626H103.243C102.93 369.626 102.63 369.626 102.305 369.626L101.121 369.583C100.508 369.583 99.8458 369.515 99.208 369.472L98.0306 369.387L96.565 369.252C95.5348 369.16 94.5107 369.043 93.4989 368.902L92.2724 368.73L91.6592 368.645C90.6351 368.485 89.6233 368.313 88.5931 368.117C87.8388 367.988 87.0907 367.829 86.3303 367.676L86.2874 294.849Z" fill="#E23E57"/>
<path opacity="0.1" d="M425.597 119.313H387.013V204.766H425.597V119.313Z" fill="#E23E57"/>
<path opacity="0.1" d="M425.603 207.391V292.224H234.087V255.633H336.097V277.219H387.013V207.391H425.603Z" fill="#E23E57"/>
<path opacity="0.1" d="M426.211 385.802H425.597V441.453C418.688 440.868 411.8 440.073 404.932 439.067C374.011 434.54 343.867 425.744 315.364 412.931C307.134 409.228 299.073 405.184 291.178 400.802C277.992 393.496 265.358 385.235 253.379 376.083C250.37 373.777 247.4 371.418 244.469 369.006C242.439 367.332 240.422 365.615 238.38 363.947C236.963 362.8 235.534 361.672 234.087 360.593V294.849H386.504C386.4 294.456 386.296 294.064 386.185 293.677C386.302 294.064 386.412 294.456 386.516 294.849H425.597V385.766C425.806 385.772 426.008 385.79 426.211 385.802Z" fill="#E23E57"/>
<path opacity="0.1" d="M526.228 112.948H501.085V105.135H512.356V81.8633C513.334 82.219 514.307 82.5848 515.275 82.961V105.135H526.228V112.948Z" fill="#E23E57"/>
<path opacity="0.1" d="M586.802 204.772H463.372C463.372 204.772 463.372 204.772 463.415 204.803L463.36 204.772H440.462V119.319H446.95V182.481H476.599V145.075H501.092V115.572H526.234V145.099H550.726V182.506H586.802V204.772Z" fill="#E23E57"/>
<path opacity="0.1" d="M440.462 207.391V292.224H586.802V207.391H440.462ZM626.527 392.082L626.729 324.934H586.802V294.886H440.462V442.366C452.46 442.87 464.476 442.727 476.458 441.937H476.667C482.39 441.577 488.087 441.054 493.757 440.367H493.886C524.137 436.847 553.717 428.954 581.7 416.936" fill="#E23E57"/>
<path opacity="0.1" d="M644.182 294.849H678.32C678.019 312.075 674.561 328.993 666.994 344.618C660.696 357.6 651.945 368.951 641.606 378.867V324.903H644.182V294.849Z" fill="#E23E57"/>
<path opacity="0.1" d="M678.338 292.224H644.182V221.329H662.664C672.231 243.681 678.308 268.21 678.338 292.224Z" fill="#E23E57"/>
<path opacity="0.1" d="M425.603 143.069H404.932V169.861H425.603V143.069Z" fill="#E23E57"/>
<path opacity="0.1" d="M425.603 198.603H404.932V204.772H425.603V198.603Z" fill="#E23E57"/>
<path opacity="0.1" d="M425.603 207.391H404.932V225.389H425.603V207.391Z" fill="#E23E57"/>
<path opacity="0.1" d="M425.603 254.137H404.932V280.929H425.603V254.137Z" fill="#E23E57"/>
<path opacity="0.1" d="M425.603 309.671H404.932V336.462H425.603V309.671Z" fill="#E23E57"/>
<path opacity="0.1" d="M425.597 385.766C425.806 385.766 426.008 385.766 426.211 385.802H425.597V392.027H404.932V365.204H425.597V385.766Z" fill="#E23E57"/>
<path opacity="0.1" d="M425.597 420.726V441.422C418.688 440.838 411.8 440.042 404.932 439.037V420.726H425.597Z" fill="#E23E57"/>
<path opacity="0.1" d="M322.68 290.256H234.087V292.224H322.68V290.256Z" fill="#E23E57"/>
<path opacity="0.1" d="M322.68 294.843H234.087V302.385H322.68V294.843Z" fill="#E23E57"/>
<path opacity="0.1" d="M322.68 327.111H234.087V339.24H322.68V327.111Z" fill="#E23E57"/>
<path opacity="0.1" d="M322.674 363.965V376.095H253.379C250.37 373.797 247.398 371.439 244.463 369.018C242.433 367.344 240.422 365.627 238.373 363.965H322.674Z" fill="#E23E57"/>
<path opacity="0.1" d="M322.674 400.814V412.932H315.358C307.136 409.224 299.077 405.178 291.178 400.796L322.674 400.814Z" fill="#E23E57"/>
<path opacity="0.1" d="M493.905 215.614H476.464V233.054H493.905V215.614Z" fill="#E23E57"/>
<path opacity="0.1" d="M116.292 134.355H98.8524V151.796H116.292V134.355Z" fill="#E23E57"/>
<path opacity="0.1" d="M116.292 174.865H98.8524V192.305H116.292V174.865Z" fill="#E23E57"/>
<path opacity="0.1" d="M116.292 215.375H98.8524V232.815H116.292V215.375Z" fill="#E23E57"/>
<path opacity="0.1" d="M116.292 255.878H98.8524V273.319H116.292V255.878Z" fill="#E23E57"/>
<path opacity="0.1" d="M116.292 296.388H98.8524V313.828H116.292V296.388Z" fill="#E23E57"/>
<path opacity="0.1" d="M116.292 336.898H98.8524V354.338H116.292V336.898Z" fill="#E23E57"/>
<path opacity="0.1" d="M560.482 215.614H543.042V233.054H560.482V215.614Z" fill="#E23E57"/>
<path opacity="0.1" d="M493.905 258.632H476.464V276.072H493.905V258.632Z" fill="#E23E57"/>
<path opacity="0.1" d="M560.482 258.632H543.042V276.072H560.482V258.632Z" fill="#E23E57"/>
<path opacity="0.1" d="M493.905 301.643H476.464V319.084H493.905V301.643Z" fill="#E23E57"/>
<path opacity="0.1" d="M560.482 301.643H543.042V319.084H560.482V301.643Z" fill="#E23E57"/>
<path opacity="0.1" d="M493.905 344.661H476.464V362.101H493.905V344.661Z" fill="#E23E57"/>
<path opacity="0.1" d="M560.482 344.661H543.042V362.101H560.482V344.661Z" fill="#E23E57"/>
<path opacity="0.1" d="M493.905 387.679H476.464V405.119H493.905V387.679Z" fill="#E23E57"/>
<path opacity="0.1" d="M560.482 387.679H543.042V405.119H560.482V387.679Z" fill="#E23E57"/>
<path opacity="0.1" d="M476.464 441.937V430.691H493.898V440.337L476.464 441.937Z" fill="#E23E57"/>
<path opacity="0.1" d="M11.7437 182.972V192.949H71.429V182.972H11.7437ZM17.692 192.324H12.823V183.585H17.7288L17.692 192.324ZM23.6342 192.324H18.7284V183.585H23.6342V192.324ZM29.564 192.324H24.6582V183.585H29.564V192.324ZM35.5062 192.324H30.6065V183.585H35.5123L35.5062 192.324ZM41.4422 192.324H36.5364V183.585H41.4422V192.324ZM47.3844 192.324H42.4786V183.585H47.3844V192.324ZM53.3265 192.324H48.4207V183.585H53.3265V192.324ZM59.2626 192.324H54.3568V183.585H59.2626V192.324ZM65.1986 192.324H60.2928V183.585H65.1986V192.324ZM71.1346 192.324H66.2288V183.585H71.1346V192.324Z" fill="#E23E57"/>
<path opacity="0.1" d="M11.7437 212.002V221.979H71.429V212.002H11.7437ZM17.692 221.348H12.823V212.634H17.7288L17.692 221.348ZM23.6342 221.348H18.7284V212.634H23.6342V221.348ZM29.564 221.348H24.6582V212.634H29.564V221.348ZM35.5062 221.348H30.6065V212.634H35.5123L35.5062 221.348ZM41.4422 221.348H36.5364V212.634H41.4422V221.348ZM47.3844 221.348H42.4786V212.634H47.3844V221.348ZM53.3265 221.348H48.4207V212.634H53.3265V221.348ZM59.2626 221.348H54.3568V212.634H59.2626V221.348ZM65.1986 221.348H60.2928V212.634H65.1986V221.348ZM71.1346 221.348H66.2288V212.634H71.1346V221.348Z" fill="#E23E57"/>
<path opacity="0.1" d="M11.7437 241.044V251.04H71.429V241.044H11.7437ZM17.692 250.39H12.823V241.67H17.7288L17.692 250.39ZM23.6342 250.39H18.7284V241.67H23.6342V250.39ZM29.564 250.39H24.6582V241.67H29.564V250.39ZM35.5062 250.39H30.6065V241.67H35.5123L35.5062 250.39ZM41.4422 250.39H36.5364V241.67H41.4422V250.39ZM47.3844 250.39H42.4786V241.67H47.3844V250.39ZM53.3265 250.39H48.4207V241.67H53.3265V250.39ZM59.2626 250.39H54.3568V241.67H59.2626V250.39ZM65.1986 250.39H60.2928V241.67H65.1986V250.39ZM71.1346 250.39H66.2288V241.67H71.1346V250.39Z" fill="#E23E57"/>
<path opacity="0.1" d="M11.7437 270.087V280.052H71.429V270.087H11.7437ZM17.692 279.432H12.823V270.706H17.7288L17.692 279.432ZM23.6342 279.432H18.7284V270.706H23.6342V279.432ZM29.564 279.432H24.6582V270.706H29.564V279.432ZM35.5062 279.432H30.6065V270.706H35.5123L35.5062 279.432ZM41.4422 279.432H36.5364V270.706H41.4422V279.432ZM47.3844 279.432H42.4786V270.706H47.3844V279.432ZM53.3265 279.432H48.4207V270.706H53.3265V279.432ZM59.2626 279.432H54.3568V270.706H59.2626V279.432ZM65.1986 279.432H60.2928V270.706H65.1986V279.432ZM71.1346 279.432H66.2288V270.706H71.1346V279.432Z" fill="#E23E57"/>
<path opacity="0.1" d="M12.0012 299.123C12.2404 300.061 12.5102 300.999 12.7923 301.925V299.748H17.6981V308.469H15.0735C15.1532 308.671 15.2329 308.892 15.3126 309.082H71.4289V299.123H12.0012ZM23.6525 308.469H18.7467V299.748H23.6525V308.469ZM29.5824 308.469H24.6766V299.748H29.5824V308.469ZM35.5245 308.469H30.6065V299.748H35.5123L35.5245 308.469ZM41.4606 308.469H36.5548V299.748H41.4606V308.469ZM47.4027 308.469H42.4969V299.748H47.4027V308.469ZM53.3449 308.469H48.4391V299.748H53.3449V308.469ZM59.2809 308.469H54.3751V299.748H59.2809V308.469ZM65.2169 308.469H60.3111V299.748H65.2169V308.469ZM71.153 308.469H66.2471V299.748H71.153V308.469Z" fill="#E23E57"/>
<path opacity="0.1" d="M25.8602 328.165C26.0135 328.362 26.1607 328.582 26.3201 328.779H29.5641V332.967C29.9136 333.384 30.257 333.801 30.6127 334.193V328.754H35.5185V337.505H33.5316C33.7279 337.707 33.918 337.922 34.1449 338.118H71.4474V328.165H25.8602ZM41.4422 337.505H36.5364V328.791H41.4422V337.505ZM47.3844 337.505H42.4786V328.791H47.3844V337.505ZM53.3266 337.505H48.4208V328.791H53.3266V337.505ZM59.2626 337.505H54.3568V328.791H59.2626V337.505ZM65.1986 337.505H60.2928V328.791H65.1986V337.505ZM71.1346 337.505H66.2288V328.791H71.1346V337.505Z" fill="#E23E57"/>
<path opacity="0.1" d="M58.6002 357.202C59.1583 357.521 59.7286 357.815 60.305 358.134V357.827H65.2108V360.587L66.2533 361.071V357.827H71.1591V363.132C71.2532 363.178 71.3518 363.215 71.4534 363.242V357.202H58.6002Z" fill="#E23E57"/>
<path opacity="0.1" d="M463.372 204.772H463.409H463.372ZM425.597 385.759H426.211H425.597ZM386.185 293.671C386.302 294.064 386.4 294.456 386.51 294.843C386.412 294.456 386.308 294.064 386.185 293.671ZM463.372 204.754H463.409H463.372ZM92.9838 112.929V115.548H120.377V112.929H92.9838ZM425.597 385.759H426.211H425.597ZM386.185 293.671C386.302 294.064 386.4 294.456 386.51 294.843C386.412 294.456 386.308 294.064 386.185 293.671ZM463.372 204.754H463.409H463.372ZM425.597 385.741H426.211H425.597ZM386.185 293.671C386.302 294.064 386.4 294.456 386.51 294.843C386.412 294.456 386.308 294.064 386.185 293.671Z" fill="#E23E57"/>
<path d="M283.771 232.827C283.771 232.827 281.354 232.49 281.354 228.97C281.354 225.45 279.625 218.876 279.625 218.876C279.625 218.846 278.129 207.427 276.062 205.612C273.996 203.797 271.34 193.139 271.34 193.139C271.34 193.139 270.887 187.356 269.961 186.112C269.035 184.867 267.784 181.819 265.938 177.471C264.092 173.123 256.396 170.112 256.396 170.112C256.396 170.112 242.482 162.042 238.539 159.412C238.181 159.196 237.846 158.943 237.539 158.657C236.853 157.756 233.86 157.738 233.86 157.738C233.547 155.763 233.247 153.494 233.149 151.44C233.149 151.219 233.149 150.998 233.118 150.778C237.515 148.179 240.827 144.081 242.445 139.237C242.519 139.004 242.58 138.758 242.648 138.525C242.911 138.438 243.154 138.298 243.359 138.112C243.565 137.926 243.73 137.699 243.843 137.446C244.199 136.655 244.205 135.729 244.647 134.993C245.162 134.122 246.143 133.656 246.916 133C248.866 131.344 249.369 128.554 249.277 126.015C249.215 123.961 248.884 121.888 249.013 119.846L249.05 119.331C249.087 119.025 249.129 118.718 249.185 118.424C249.485 116.903 250.141 115.468 250.509 113.959C250.877 112.451 250.914 110.752 250.055 109.452C248.798 107.545 246.18 107.165 243.88 106.969C241.274 106.748 238.944 107.036 237.276 104.871C236.495 103.74 235.617 102.679 234.651 101.701C234.308 101.382 230.972 99.3463 230.972 99.2114C227.716 97.7034 224.025 97.4203 220.578 98.4142C218.848 98.917 217.217 99.7387 215.463 100.15C211.68 101.045 207.326 100.076 204.113 102.241C202.322 103.467 201.249 105.417 200.243 107.318C199.425 108.884 198.596 110.448 197.753 112.009C196.398 114.579 195.018 117.191 194.448 120.037C194.328 120.656 194.254 121.283 194.227 121.913V121.944C194.227 122.171 194.227 122.397 194.227 122.624V122.913C194.227 123.127 194.227 123.336 194.264 123.526C194.301 123.716 194.295 123.777 194.313 123.906C194.332 124.035 194.362 124.323 194.399 124.519C194.436 124.715 194.509 125.059 194.583 125.329C194.614 125.445 194.657 125.556 194.693 125.666C194.755 125.874 194.828 126.077 194.908 126.279C194.951 126.383 194.994 126.494 195.043 126.598C195.135 126.813 195.245 127.021 195.356 127.211C195.405 127.297 195.442 127.377 195.491 127.457C195.662 127.742 195.85 128.016 196.055 128.278C197.367 129.916 199.299 130.958 200.728 132.491C200.728 132.552 200.728 132.614 200.728 132.669C200.728 132.841 200.728 133.006 200.728 133.178C200.803 136.597 201.713 139.946 203.379 142.933C205.044 145.92 207.413 148.455 210.282 150.318C210.282 150.551 210.312 150.79 210.325 151.023C210.444 152.843 210.422 154.67 210.257 156.487C210.007 156.193 209.695 155.958 209.342 155.801C208.99 155.644 208.607 155.568 208.221 155.579C207.958 155.566 207.694 155.589 207.436 155.647L207.381 155.604V155.659C206.032 155.99 204.37 157.394 202.782 161.386C202.782 161.386 197.95 166.832 194.27 166.605C190.591 166.378 181.276 172.271 181.276 172.271C181.276 172.271 172.188 178.17 170.238 184.18C169.148 187.588 167.841 190.922 166.326 194.163L155.091 217.312L153.019 235.679C153.019 235.679 154.165 243.847 153.938 245.092C153.712 246.336 158.654 257.565 158.654 257.565C158.654 257.565 174.984 286.257 181.656 287.729L182.135 287.392C182.42 287.541 182.723 287.654 183.036 287.729L184.41 286.76C184.492 287.84 184.457 288.926 184.305 289.998C183.386 292.831 184.649 311.32 186.255 314.944C187.862 318.568 187.292 366.087 187.292 366.087L187.065 370.282C187.065 370.282 187.065 370.416 187.12 370.649L187.065 371.643L187.23 371.729C187.402 373.059 187.346 374.409 187.065 375.721C186.488 377.561 186.255 382.761 186.255 382.761C186.255 382.761 181.662 412.122 183.839 418.021C186.016 423.92 187.868 430.384 187.868 430.384C187.868 430.384 190.168 437.742 187.979 439C185.789 440.257 179.565 442.366 180.847 445.432C182.012 448.265 186.433 455.857 187.089 456.967L187.034 457.55L186.133 467.318C186.279 468.608 186.629 469.867 187.169 471.047C188.156 473.175 190.076 475.382 193.725 475.143C194.338 475.1 195.049 475.027 195.736 474.935C202.414 474.039 210.637 471.059 210.637 471.059C210.21 470.788 209.819 470.464 209.472 470.096C209.144 469.778 208.884 469.397 208.708 468.975C208.532 468.553 208.443 468.1 208.448 467.643C208.546 465.865 205.216 457.39 204.389 455.305C204.26 455.005 204.192 454.833 204.192 454.833C204.192 454.833 211.784 446.898 210.521 439.864C210.521 439.864 202.12 434.958 204.885 432.266C207.651 429.574 212.593 421.842 212.593 421.842C212.593 421.842 212.82 392.928 212.593 388.611C212.357 385.614 212.499 382.6 213.017 379.639C213.109 379.192 213.219 378.756 213.335 378.327C217.16 378.898 221.021 379.191 224.889 379.204C226.299 379.204 227.734 379.204 229.181 379.118C229.181 379.527 229.2 379.968 229.236 380.443C229.555 387.605 230.15 400.164 230.635 404.831C231.321 411.521 235.117 429.55 235.117 429.55C235.117 429.55 227.875 434.198 236.38 445.653C236.38 445.653 236.381 449.805 235.816 450.406C235.214 452.37 234.729 454.369 234.363 456.391C234.007 458.549 233.86 460.732 234.437 461.867C235.816 464.577 244.095 464.356 244.095 464.356L244.297 464.32C245.86 464.158 247.44 464.309 248.944 464.762C250.448 465.216 251.847 465.964 253.06 466.963C256.206 469.489 268.146 468.379 274.609 467.576C277.142 467.257 278.834 466.963 278.834 466.963C278.916 466.676 278.945 466.377 278.92 466.08C278.852 464.491 277.608 461.008 269.17 457.899C269.17 457.899 261.235 452.564 261.345 447.916H261.179H260.259C260.928 447.879 261.357 447.916 261.357 447.916C261.357 447.916 258.248 436.571 259.518 435.651C260.787 434.732 256.985 422.16 256.985 422.16C256.985 422.16 254.808 401.065 254.691 399.588C254.696 398.319 254.888 397.059 255.262 395.847L254.691 384.281C254.691 384.281 254.581 380.437 254.691 379.186C254.673 378.1 254.585 377.016 254.428 375.942C254.373 375.512 254.317 375.065 254.256 374.623C257.23 373.869 259.162 373.17 259.162 373.17L258.818 332.912C261.345 328.006 261.811 317.244 261.799 309.609C261.799 304.703 261.578 301.073 261.578 301.073L265.03 295.437C265.03 295.437 265.828 288.692 264.564 287.214C264.006 286.546 264.258 285.853 264.718 285.282C264.957 285.093 265.209 284.921 265.472 284.767C265.472 284.767 265.435 284.712 265.392 284.632C265.633 284.431 265.89 284.248 266.159 284.087C266.159 284.087 264.932 282.186 266.03 281.382C267.06 282.081 267.98 282.609 268.679 283.038C268.63 283.486 268.581 283.743 268.581 283.743L268.875 283.13C269.55 283.51 269.961 283.743 269.961 283.743C269.961 283.743 275.369 272.969 275.253 271.381C275.136 269.792 278.932 263.102 278.932 263.102C278.932 263.102 279.392 259.588 281.465 258.116C283.538 256.645 283.071 245.981 283.071 245.981C283.071 245.981 283.648 240.425 285.028 238.156C286.407 235.887 283.771 232.827 283.771 232.827ZM180.283 228.099L180.387 230.669C179.774 229.681 179.332 228.97 179.332 228.97L180.283 228.099Z" fill="url(#paint0_linear)"/>
<path d="M270.255 279.089L268.93 284.731C268.93 284.731 258.322 279.316 256.408 272.436C254.495 265.555 259.609 262.943 259.609 262.943L269.495 267.131L270.255 279.089Z" fill="white"/>
<path opacity="0.1" d="M270.255 279.089L268.93 284.731C268.93 284.731 258.322 279.316 256.408 272.436C254.495 265.555 259.609 262.943 259.609 262.943L269.495 267.131L270.255 279.089Z" fill="black"/>
<path d="M210.717 471.096C210.717 471.096 200.905 474.702 194.16 475.156C190.579 475.395 188.696 473.199 187.727 471.084C187.198 469.908 186.856 468.656 186.715 467.374L187.592 457.654L188.058 452.479L202.389 448.756L204.419 454.962L204.609 455.434C205.425 457.507 208.693 465.939 208.595 467.699C208.591 468.149 208.678 468.596 208.851 469.012C209.024 469.429 209.279 469.806 209.601 470.121C209.93 470.492 210.305 470.82 210.717 471.096Z" fill="white"/>
<path d="M277.736 466.153C277.761 466.448 277.732 466.746 277.651 467.03C277.651 467.03 256.666 470.532 252.373 467.03C251.163 466.007 249.752 465.249 248.232 464.803C246.711 464.357 245.114 464.235 243.543 464.442C243.543 464.442 235.424 464.663 234.069 461.99C233.504 460.867 233.652 458.69 234.001 456.544C234.358 454.533 234.833 452.545 235.424 450.59L235.749 450.332L237.68 448.781L260.296 448.112H260.468C260.358 452.736 268.146 458.04 268.146 458.04C276.418 461.107 277.638 464.571 277.736 466.153Z" fill="white"/>
<path opacity="0.1" d="M277.736 466.153C277.758 466.449 277.727 466.746 277.644 467.03C277.644 467.03 256.666 470.532 252.373 467.03C251.164 466.008 249.754 465.25 248.235 464.804C246.715 464.359 245.119 464.235 243.549 464.442C243.549 464.442 235.424 464.663 234.075 461.99C233.511 460.861 233.652 458.69 234.001 456.544C237.129 456.857 242.065 457.636 244.003 459.494C246.934 462.321 251.901 465.142 254.949 465.362C257.334 465.516 271.604 465.969 277.736 466.153Z" fill="black"/>
<path opacity="0.1" d="M210.717 471.096C210.717 471.096 200.905 474.702 194.16 475.155C190.579 475.395 188.696 473.199 187.733 471.078C190.229 471.918 193.694 472.801 195.515 471.991C197.674 471.035 205.327 470.415 209.619 470.152C209.946 470.509 210.315 470.826 210.717 471.096Z" fill="black"/>
<path d="M225.275 180.519C217.18 177.373 206.768 166.979 209.368 162.122C209.945 160.897 210.289 159.574 210.38 158.222C210.547 156.387 210.572 154.542 210.453 152.703C210.271 149.692 209.909 146.694 209.368 143.726C209.368 143.726 234.639 144.296 233.167 148.018C232.738 149.11 232.67 151.005 232.787 153.126C232.904 155.248 233.21 157.646 233.529 159.676C233.971 162.46 234.412 164.581 234.412 164.581C234.412 164.581 232.867 166.746 231.959 166.863C231.052 166.979 236.889 185.002 225.275 180.519Z" fill="#CF6F80"/>
<path opacity="0.1" d="M204.591 455.434L204.401 455.643C196.846 446.506 187.709 457.893 187.709 457.893L187.574 457.654L188.04 452.479L202.371 448.756L204.401 454.962L204.591 455.434Z" fill="black"/>
<path opacity="0.1" d="M260.474 448.756C260.474 448.756 254.955 448.64 252.012 451.24C249.068 453.84 234.841 451.804 235.454 451.24C235.636 450.96 235.746 450.64 235.773 450.308L237.705 448.756L260.321 448.088C260.407 448.499 260.474 448.756 260.474 448.756Z" fill="black"/>
<path d="M213.992 377.003C213.581 378.019 213.268 379.072 213.059 380.149C212.548 383.096 212.406 386.095 212.636 389.077C212.863 393.37 212.636 422.136 212.636 422.136C212.636 422.136 207.786 429.808 205.081 432.512C202.377 435.216 210.6 440.073 210.6 440.073C211.827 447.064 204.395 454.962 204.395 454.962C196.84 445.825 187.703 457.219 187.703 457.219C187.703 457.219 182.735 448.634 181.497 445.567C180.258 442.501 186.347 440.38 188.488 439.135C190.628 437.89 188.383 430.55 188.383 430.55C188.383 430.55 186.574 424.117 184.428 418.248C182.282 412.38 186.795 383.166 186.795 383.166C186.795 383.166 187.028 377.978 187.586 376.169C187.868 374.863 187.924 373.519 187.752 372.195C187.715 371.747 187.672 371.373 187.641 371.122C187.611 370.871 187.586 370.754 187.586 370.754L187.672 370.607L190.738 364.892C190.738 364.892 215.463 373.403 213.992 377.003Z" fill="#E23E57"/>
<path d="M260.474 448.082C260.474 448.082 254.955 447.965 252.012 450.535C249.068 453.104 234.841 451.099 235.454 450.535C236.068 449.97 236.019 445.794 236.019 445.794C227.673 434.401 234.792 429.777 234.792 429.777C234.792 429.777 231.064 411.84 230.389 405.187C229.917 400.538 229.334 388.047 229.022 380.915C228.887 377.849 228.807 375.739 228.807 375.739L235.626 374.366L236.503 374.188L252.95 370.889C252.95 370.889 253.404 373.955 253.71 376.463C253.863 377.534 253.949 378.613 253.968 379.695C253.857 380.921 253.968 384.76 253.968 384.76L254.526 396.27C254.161 397.478 253.973 398.731 253.968 399.993C254.078 401.458 256.218 422.443 256.218 422.443C256.218 422.443 259.941 434.965 258.671 435.866C257.402 436.768 260.474 448.082 260.474 448.082Z" fill="#E23E57"/>
<path opacity="0.1" d="M233.167 148.018C232.738 149.11 232.67 151.005 232.787 153.126C229.402 155.165 225.511 156.207 221.56 156.133C217.609 156.059 213.76 154.873 210.453 152.709C210.271 149.696 209.909 146.696 209.368 143.726C209.368 143.726 234.639 144.284 233.167 148.018Z" fill="black"/>
<path d="M242.936 134.466C242.941 136.676 242.593 138.872 241.906 140.972C240.369 145.678 237.219 149.689 233.011 152.296C228.803 154.904 223.809 155.94 218.912 155.222C214.014 154.503 209.528 152.076 206.246 148.37C202.965 144.664 201.099 139.917 200.979 134.969C200.979 134.797 200.979 134.638 200.979 134.466C200.931 131.68 201.439 128.913 202.472 126.326C203.505 123.739 205.043 121.383 206.996 119.396C208.949 117.409 211.278 115.832 213.847 114.754C216.417 113.677 219.175 113.123 221.96 113.123C224.746 113.123 227.504 113.677 230.074 114.754C232.643 115.832 234.972 117.409 236.925 119.396C238.878 121.383 240.416 123.739 241.449 126.326C242.482 128.913 242.99 131.68 242.942 134.466H242.936Z" fill="#CF6F80"/>
<path opacity="0.1" d="M225.275 180.519C217.18 177.373 206.768 166.979 209.368 162.122C209.945 160.897 210.289 159.574 210.38 158.222L221.461 167.329L228.317 172.952L233.529 159.682C233.971 162.466 234.412 164.587 234.412 164.587C234.412 164.587 232.867 166.752 231.959 166.869C231.052 166.985 236.889 185.002 225.275 180.519Z" fill="black"/>
<path d="M253.931 220.765L244.677 376.218L232.609 377.009L201.359 286.871L206.486 179.857L207.565 157.247L221.461 168.659L228.323 174.283L233.688 160.626L243.666 169.322L253.931 220.765Z" fill="#E23E57"/>
<path opacity="0.1" d="M213.992 377.002C213.581 378.019 213.268 379.072 213.06 380.148C204.278 378.792 195.749 376.128 187.758 372.244L187.592 372.158L187.647 371.171L187.678 370.656L190.744 364.94C190.744 364.94 215.463 373.403 213.992 377.002Z" fill="black"/>
<path opacity="0.1" d="M235.767 380.173C233.522 380.555 231.258 380.813 228.985 380.946C228.85 377.88 228.77 375.77 228.77 375.77L235.589 374.396L235.767 380.173Z" fill="black"/>
<path opacity="0.1" d="M253.673 376.494C249.313 377.628 242.58 378.904 236.552 378.106L236.466 374.219L252.913 370.919C252.913 370.919 253.367 373.955 253.673 376.494Z" fill="black"/>
<path opacity="0.1" d="M236.442 378.818C211.3 383.11 188.273 370.803 188.273 370.803L188.494 366.633C188.494 366.633 189.064 319.359 187.482 315.735C185.9 312.111 184.667 293.733 185.562 290.912C186.458 288.091 182.294 245.791 182.294 245.791L181.619 228.62L156.931 218.619L167.969 195.611C169.46 192.385 170.742 189.066 171.808 185.676C173.727 179.703 182.637 173.835 182.637 173.835C182.637 173.835 191.774 167.972 195.386 168.193C198.998 168.414 203.732 163.005 203.732 163.005C207.228 154.095 210.392 158.13 210.392 158.13C210.392 158.553 210.392 158.13 210.22 159.449C208.994 169.23 230.052 200.136 230.352 200.682L232.358 249.531L234.388 311.351L236.442 378.818Z" fill="black"/>
<path d="M235.767 378.818C210.625 383.11 187.592 370.803 187.592 370.803L187.819 366.633C187.819 366.633 188.389 319.359 186.801 315.735C185.213 312.111 183.986 293.733 184.888 290.912C185.789 288.091 181.619 245.791 181.619 245.791L180.939 228.62L156.238 218.582L167.276 195.574C168.764 192.346 170.046 189.028 171.115 185.639C173.028 179.667 181.944 173.798 181.944 173.798C181.944 173.798 191.082 167.936 194.687 168.156C198.293 168.377 203.033 162.968 203.033 162.968C206.535 154.058 210.392 158.093 210.392 158.093C210.392 158.516 210.024 158.707 210.22 159.412C212.918 168.898 229.377 200.099 229.678 200.645L231.708 249.495L233.737 311.314L235.767 378.818Z" fill="white"/>
<path opacity="0.1" d="M228.991 202.037C226.287 200.909 211.962 184.554 211.962 184.554V180.832C211.441 179.605 208.344 180.353 205.83 181.212L206.909 158.602L208.135 159.62C210.821 169.101 228.678 201.491 228.991 202.037Z" fill="black"/>
<path d="M229.672 200.682C226.961 199.554 212.636 183.199 212.636 183.199V179.477C212.115 178.25 209.018 178.998 206.504 179.857L207.59 157.247L208.816 158.265C211.508 167.746 229.371 200.142 229.672 200.682Z" fill="white"/>
<path opacity="0.1" d="M188.273 282.247C188.61 282.247 205.756 280.444 205.756 280.444C205.756 280.444 216.138 300.858 215.457 305.826C214.777 310.793 213.544 315.19 209.368 314.411C205.192 313.632 186.893 315.024 186.893 315.024L188.273 282.247Z" fill="black"/>
<path d="M187.592 280.892C187.93 280.892 205.075 279.089 205.075 279.089C205.075 279.089 215.451 299.509 214.777 304.47C214.102 309.431 212.857 313.834 208.687 313.055C204.517 312.277 186.213 313.669 186.213 313.669L187.592 280.892Z" fill="white"/>
<path d="M200.513 271.307C200.513 271.307 216.248 279.763 216.586 282.345C216.923 284.927 208.577 281.217 206.774 280.769C205.587 280.483 204.379 280.295 203.162 280.205L191.137 280.53L200.513 271.307Z" fill="#CF6F80"/>
<path opacity="0.1" d="M224.6 203.092C225.515 203.092 226.256 202.351 226.256 201.436C226.256 200.522 225.515 199.78 224.6 199.78C223.686 199.78 222.945 200.522 222.945 201.436C222.945 202.351 223.686 203.092 224.6 203.092Z" fill="black"/>
<path d="M224.6 202.417C225.515 202.417 226.256 201.676 226.256 200.762C226.256 199.847 225.515 199.106 224.6 199.106C223.686 199.106 222.945 199.847 222.945 200.762C222.945 201.676 223.686 202.417 224.6 202.417Z" fill="#3F3D56"/>
<path opacity="0.1" d="M227.648 274.766C228.563 274.766 229.304 274.024 229.304 273.11C229.304 272.195 228.563 271.454 227.648 271.454C226.734 271.454 225.992 272.195 225.992 273.11C225.992 274.024 226.734 274.766 227.648 274.766Z" fill="black"/>
<path d="M227.648 274.085C228.563 274.085 229.304 273.344 229.304 272.429C229.304 271.515 228.563 270.774 227.648 270.774C226.734 270.774 225.992 271.515 225.992 272.429C225.992 273.344 226.734 274.085 227.648 274.085Z" fill="#3F3D56"/>
<path opacity="0.1" d="M226.25 238.929C227.164 238.929 227.906 238.188 227.906 237.273C227.906 236.359 227.164 235.617 226.25 235.617C225.336 235.617 224.594 236.359 224.594 237.273C224.594 238.188 225.336 238.929 226.25 238.929Z" fill="black"/>
<path d="M226.25 238.254C227.164 238.254 227.906 237.513 227.906 236.599C227.906 235.684 227.164 234.943 226.25 234.943C225.336 234.943 224.594 235.684 224.594 236.599C224.594 237.513 225.336 238.254 226.25 238.254Z" fill="#3F3D56"/>
<path d="M264.417 279.861C264.417 279.861 265.545 281.554 264.417 282.345C263.289 283.136 264.528 285.049 264.528 285.049C264.528 285.049 261.713 286.699 262.952 288.183C264.19 289.667 263.405 296.369 263.405 296.369L260.02 301.974C260.02 301.974 260.223 305.586 260.235 310.468C260.235 318.084 259.787 328.791 257.31 333.672L257.653 373.722C257.653 373.722 245.8 378.051 235.878 376.733L234.406 312.467C234.406 312.467 236.552 276.023 237.343 269.032C237.806 265.403 237.995 261.744 237.907 258.086C237.907 258.086 237.57 247.146 236.436 242.068C236.436 242.068 235.209 220.072 235.087 213.983C235.031 211.07 235.185 202.571 235.356 194.488C235.547 185.652 235.761 177.318 235.761 177.318L233.523 159.608C233.523 159.608 235.761 159.381 236.436 160.283C236.738 160.565 237.066 160.817 237.417 161.037C241.28 163.649 254.931 171.682 254.931 171.682C254.931 171.682 262.485 174.687 264.295 178.992C266.104 183.297 267.361 186.351 268.238 187.577C269.114 188.804 269.593 194.568 269.593 194.568C269.593 194.568 272.193 205.177 274.223 206.973C276.252 208.77 277.736 220.201 277.736 220.201L259.8 234.305C259.8 234.305 258.224 257.767 257.886 258.675C257.549 259.582 264.417 279.861 264.417 279.861Z" fill="white"/>
<path d="M265.098 279.862C265.098 279.862 266.22 281.554 265.098 282.345C263.976 283.136 265.202 285.049 265.202 285.049C265.202 285.049 262.406 286.717 263.632 288.201C264.859 289.685 264.086 296.388 264.086 296.388L260.701 301.993C260.701 301.993 260.903 305.605 260.922 310.486C260.922 318.102 260.474 328.809 257.997 333.69L258.334 373.74C258.334 373.74 246.462 378.07 236.552 376.751L235.087 312.485C235.087 312.485 237.233 276.041 238.024 269.05C238.487 265.421 238.674 261.762 238.582 258.104C238.582 258.104 238.245 247.164 237.116 242.087C237.116 242.087 235.89 220.09 235.761 214.001C235.706 211.088 235.865 202.589 236.031 194.507C236.221 185.67 236.436 177.336 236.436 177.336L233.48 159.387C233.48 159.387 236.436 159.387 237.116 160.301C237.416 160.587 237.745 160.839 238.097 161.055C241.961 163.668 255.617 171.701 255.617 171.701C255.617 171.701 263.166 174.706 264.975 179.01C266.784 183.315 268.041 186.369 268.924 187.596C269.807 188.822 270.273 194.586 270.273 194.586C270.273 194.586 272.874 205.195 274.903 206.992C276.933 208.789 278.399 220.195 278.399 220.195L260.462 234.299C260.462 234.299 258.886 257.761 258.542 258.668C258.199 259.576 265.098 279.862 265.098 279.862Z" fill="white"/>
<path opacity="0.1" d="M243.617 182.543L245.235 187.265L236.712 195.85C236.902 187.019 237.116 178.679 237.116 178.679L234.161 160.73C234.161 160.73 237.116 160.73 237.797 161.644C238.095 161.929 238.425 162.18 238.778 162.392L246.027 183.303L243.617 182.543Z" fill="black"/>
<path d="M242.936 181.187L244.561 185.909L236.037 194.494C236.227 185.658 236.442 177.324 236.442 177.324L233.48 159.375C233.48 159.375 236.442 159.375 237.116 160.289C237.417 160.573 237.746 160.825 238.097 161.043L245.352 181.948L242.936 181.187Z" fill="white"/>
<path opacity="0.1" d="M242.936 134.466C242.941 136.676 242.593 138.872 241.906 140.972C241.79 140.99 241.671 140.985 241.558 140.956C241.444 140.928 241.337 140.877 241.243 140.807C241.084 135.288 238.367 130.106 235.025 125.697C234.087 124.365 232.949 123.187 231.653 122.201C230.341 121.217 228.711 120.755 227.078 120.907C225.238 121.159 223.613 122.41 221.755 122.569C219.302 122.772 217.107 121.073 214.672 120.987C213.683 120.997 212.706 121.217 211.809 121.634C210.911 122.05 210.112 122.654 209.466 123.403C208.187 124.916 207.237 126.679 206.676 128.579C205.712 131.46 205.187 134.47 205.118 137.507C205.088 139.224 204.922 141.377 203.328 142.002C203.448 140.74 203.304 139.466 202.906 138.261C202.508 137.057 201.864 135.948 201.016 135.005L200.979 134.969C200.979 134.797 200.979 134.638 200.979 134.466C200.931 131.68 201.439 128.913 202.472 126.326C203.505 123.739 205.043 121.383 206.996 119.396C208.949 117.409 211.278 115.832 213.847 114.754C216.417 113.677 219.175 113.123 221.96 113.123C224.746 113.123 227.504 113.677 230.074 114.754C232.643 115.832 234.972 117.409 236.925 119.396C238.878 121.383 240.416 123.739 241.449 126.326C242.482 128.913 242.99 131.68 242.942 134.466H242.936Z" fill="black"/>
<path d="M230.647 101.149C227.46 99.6505 223.836 99.367 220.455 100.352C218.756 100.855 217.156 101.671 215.433 102.082C211.753 102.971 207.461 102.008 204.303 104.16C202.549 105.387 201.494 107.325 200.513 109.207L198.06 113.88C196.723 116.437 195.374 119.037 194.816 121.852C194.258 124.667 194.595 127.819 196.38 130.081C197.68 131.731 199.599 132.767 201.01 134.319C201.855 135.263 202.496 136.371 202.892 137.573C203.289 138.776 203.433 140.048 203.315 141.31C204.916 140.696 205.069 138.538 205.106 136.821C205.174 133.783 205.699 130.773 206.664 127.892C207.223 125.992 208.174 124.229 209.454 122.717C210.1 121.967 210.899 121.365 211.797 120.948C212.694 120.531 213.67 120.311 214.66 120.3C217.113 120.386 219.314 122.079 221.743 121.876C223.582 121.723 225.214 120.466 227.066 120.221C228.698 120.066 230.33 120.528 231.64 121.515C232.937 122.498 234.072 123.678 235.007 125.01C238.355 129.419 241.072 134.589 241.231 140.12C241.924 140.629 242.924 139.967 243.267 139.182C243.61 138.397 243.623 137.477 244.058 136.729C244.561 135.864 245.524 135.404 246.278 134.754C248.191 133.105 248.67 130.327 248.596 127.806C248.522 125.286 248.032 122.729 248.51 120.251C248.798 118.731 249.448 117.308 249.804 115.806C250.16 114.303 250.203 112.617 249.362 111.323C248.136 109.422 245.554 109.048 243.304 108.87C240.747 108.649 238.459 108.931 236.828 106.779C236.062 105.656 235.201 104.601 234.253 103.627C233.928 103.308 230.647 101.284 230.647 101.149Z" fill="#512E4E"/>
<path opacity="0.1" d="M163.995 230.466L157.587 218.619L155.557 236.899C155.557 236.899 156.686 245.018 156.459 246.263C156.232 247.508 161.083 258.669 161.083 258.669C161.083 258.669 177.106 287.208 183.649 288.68L205.756 272.883L199.894 265.439C199.894 265.439 197.864 264.647 197.355 265.439C197.355 265.439 186.47 246.711 185.342 245.355C184.213 244 184.434 241.296 184.434 241.296C184.434 241.296 182.742 239.493 183.306 237.8C183.87 236.108 180.037 230.239 180.037 230.239L183.533 226.971L163.995 230.466Z" fill="black"/>
<path d="M157.924 217.27L156.232 218.619L154.202 236.899C154.202 236.899 155.33 245.018 155.104 246.263C154.877 247.508 159.733 258.669 159.733 258.669C159.733 258.669 175.751 287.208 182.294 288.68L204.407 272.883L198.538 265.439C198.538 265.439 196.509 264.648 196 265.439C196 265.439 185.115 246.711 183.986 245.355C182.858 244 183.085 241.296 183.085 241.296C183.085 241.296 181.393 239.493 181.957 237.801C182.521 236.108 178.682 230.239 178.682 230.239L182.177 226.971L157.924 217.27Z" fill="white"/>
<path opacity="0.1" d="M262.952 288.882C264.178 290.372 263.405 297.063 263.405 297.063L260.02 302.668C260.02 302.668 260.223 306.286 260.235 311.161L254.544 312.939C254.03 313.1 253.485 313.135 252.954 313.042C252.423 312.949 251.922 312.731 251.493 312.405C251.064 312.079 250.719 311.655 250.487 311.169C250.255 310.683 250.143 310.148 250.16 309.609L251.141 277.961L264.417 283.038C263.289 283.823 264.528 285.749 264.528 285.749C264.528 285.749 261.713 287.392 262.952 288.882Z" fill="black"/>
<path d="M263.632 288.201C264.859 289.691 264.086 296.388 264.086 296.388L260.701 301.993C260.701 301.993 260.903 305.605 260.922 310.486L255.127 312.295C254.623 312.451 254.089 312.485 253.57 312.394C253.05 312.303 252.56 312.088 252.14 311.769C251.721 311.45 251.383 311.035 251.156 310.559C250.928 310.083 250.818 309.56 250.834 309.033L251.822 277.286L265.104 282.363C263.97 283.148 265.208 285.068 265.208 285.068C265.208 285.068 262.406 286.717 263.632 288.201Z" fill="white"/>
<path d="M268.029 273.116C268.029 273.116 267.128 278.874 264.871 279.212C262.614 279.549 261.602 288.527 259.352 288.208C257.101 287.889 258.591 279.862 258.671 278.304C258.751 276.746 256.218 270.295 258.113 268.83C260.008 267.364 266.005 268.83 266.005 268.83L268.029 273.116Z" fill="#CF6F80"/>
<path opacity="0.1" d="M272.831 228.774L277.086 220.189C277.086 220.189 278.779 226.732 278.779 230.227C278.779 233.723 281.146 234.066 281.146 234.066C281.146 234.066 283.74 237.132 282.372 239.364C281.005 241.596 280.453 247.152 280.453 247.152C280.453 247.152 280.901 257.755 278.871 259.221C276.841 260.686 276.418 264.188 276.418 264.188C276.418 264.188 272.69 270.841 272.806 272.423C272.923 274.005 267.618 284.718 267.618 284.718C267.618 284.718 270.212 271.405 255.096 265.653C255.096 265.653 254.98 261.134 256.108 259.895C257.236 258.656 258.996 258.092 257.892 251.831C256.789 245.57 257.574 238.089 257.574 236.586C257.574 235.084 260.959 225.714 260.959 225.714L272.831 228.774Z" fill="black"/>
<path d="M274.67 218.962L278.386 220.189C278.386 220.189 280.085 226.732 280.085 230.227C280.085 233.723 282.452 234.066 282.452 234.066C282.452 234.066 285.046 237.132 283.679 239.364C282.311 241.596 281.765 247.152 281.765 247.152C281.765 247.152 282.213 257.755 280.183 259.221C278.153 260.686 277.7 264.188 277.7 264.188C277.7 264.188 273.977 270.841 274.094 272.423C274.21 274.005 268.9 284.718 268.9 284.718C268.9 284.718 271.5 271.405 256.378 265.653C256.378 265.653 256.267 261.134 257.396 259.895C258.524 258.656 260.284 258.092 259.18 251.831C258.076 245.57 258.861 238.089 258.861 236.586C258.861 235.084 262.246 225.714 262.246 225.714L274.67 218.962Z" fill="white"/>
<path opacity="0.1" d="M192.59 441.483C192.59 441.483 198.514 437.761 202.402 440.465C206.29 443.17 192.59 441.483 192.59 441.483Z" fill="black"/>
<path opacity="0.1" d="M238.619 429.973C238.619 429.973 243.862 429.299 248.265 434.039C252.668 438.779 238.619 429.973 238.619 429.973Z" fill="black"/>
<g opacity="0.1">
<path opacity="0.1" d="M246.29 133.411C245.536 134.061 244.567 134.527 244.064 135.392C243.635 136.134 243.623 137.047 243.279 137.845C242.936 138.642 241.936 139.292 241.243 138.789C241.084 133.27 238.361 128.088 235.019 123.673C234.085 122.34 232.949 121.161 231.653 120.178C230.34 119.191 228.707 118.729 227.072 118.884C225.232 119.135 223.613 120.386 221.755 120.539C219.302 120.748 217.101 119.049 214.666 118.963C213.677 118.973 212.701 119.194 211.804 119.612C210.907 120.03 210.11 120.635 209.466 121.386C208.186 122.896 207.235 124.656 206.676 126.555C205.712 129.436 205.187 132.446 205.118 135.484C205.081 137.195 204.922 139.329 203.34 139.966C203.377 140.419 203.377 140.875 203.34 141.328C204.934 140.714 205.094 138.556 205.131 136.839C205.199 133.801 205.724 130.792 206.688 127.91C207.248 126.01 208.198 124.247 209.478 122.735C210.124 121.986 210.921 121.383 211.818 120.966C212.715 120.55 213.69 120.329 214.678 120.319C217.131 120.404 219.339 122.097 221.767 121.895C223.607 121.741 225.238 120.484 227.084 120.239C228.719 120.085 230.352 120.546 231.665 121.533C232.961 122.517 234.097 123.696 235.031 125.028C238.373 129.437 241.096 134.607 241.256 140.138C241.949 140.647 242.948 139.985 243.292 139.2C243.635 138.415 243.647 137.495 244.076 136.747C244.579 135.882 245.548 135.422 246.302 134.772C248.216 133.123 248.694 130.345 248.62 127.824C248.62 127.745 248.62 127.665 248.62 127.591C248.504 129.775 247.921 132.001 246.29 133.411Z" fill="black"/>
<path opacity="0.1" d="M201.022 132.976C199.612 131.424 197.686 130.388 196.392 128.744C195.303 127.289 194.68 125.538 194.608 123.722C194.415 125.991 195.048 128.254 196.392 130.093C197.686 131.743 199.612 132.779 201.022 134.331C202.376 135.848 203.189 137.772 203.334 139.801C203.428 138.566 203.271 137.325 202.874 136.152C202.477 134.98 201.847 133.899 201.022 132.976Z" fill="black"/>
<path opacity="0.1" d="M249.816 114.462C249.454 115.965 248.811 117.394 248.516 118.908C248.342 119.92 248.278 120.948 248.326 121.974C248.347 121.39 248.41 120.808 248.516 120.233C248.811 118.712 249.454 117.289 249.816 115.787C250.027 114.958 250.096 114.1 250.019 113.248C249.981 113.657 249.913 114.063 249.816 114.462Z" fill="black"/>
</g>
<path opacity="0.1" d="M82.0991 466.417C115.1 466.417 141.852 462.12 141.852 456.82C141.852 451.52 115.1 447.223 82.0991 447.223C49.0986 447.223 22.3464 451.52 22.3464 456.82C22.3464 462.12 49.0986 466.417 82.0991 466.417Z" fill="#E23E57"/>
<path d="M84.0246 272.975H80.1797V359.544H84.0246V272.975Z" fill="#535461"/>
<path d="M108.186 359.28L107.947 363.181L107.603 368.7L107.462 370.993L107.125 376.512L106.978 378.806L106.634 384.325L102.759 446.917C102.59 449.61 101.402 452.137 99.4356 453.985C97.4693 455.833 94.8727 456.862 92.1744 456.863H72.0238C69.3261 456.862 66.7303 455.833 64.765 453.985C62.7996 452.137 61.6126 449.609 61.4457 446.917L57.5885 384.282L57.2451 378.763L57.104 376.469L56.7606 370.95L56.6196 368.657L56.2762 363.138L56.0309 359.238C55.9883 358.487 56.0995 357.735 56.3577 357.029C56.6159 356.323 57.0157 355.677 57.5325 355.131C58.0493 354.585 58.6722 354.15 59.3631 353.854C60.0539 353.557 60.7981 353.405 61.5499 353.406H102.765C103.514 353.412 104.254 353.572 104.938 353.876C105.623 354.179 106.239 354.62 106.747 355.17C107.255 355.721 107.644 356.369 107.892 357.076C108.139 357.783 108.239 358.533 108.186 359.28Z" fill="#3F3D56"/>
<path d="M107.947 363.181L107.603 368.681H56.595L56.2516 363.181H107.947Z" fill="#9D9CB5"/>
<path d="M107.462 370.975L107.125 376.481H57.0795L56.7361 370.975H107.462Z" fill="#9D9CB5"/>
<path d="M106.978 378.781L106.64 384.282H57.5639L57.2205 378.781H106.978Z" fill="#9D9CB5"/>
<path d="M50.3831 305.421C72.7719 321.622 82.1175 346.961 82.1175 346.961C82.1175 346.961 55.1356 346.035 32.7406 329.833C10.3456 313.632 1.01841 288.299 1.01841 288.299C1.01841 288.299 27.9881 289.219 50.3831 305.421Z" fill="#E23E57"/>
<path d="M1 288.299C1 288.299 29.0121 303.845 37.9959 316.716C46.9796 329.588 82.1175 346.961 82.1175 346.961" stroke="#535461" stroke-width="2" stroke-miterlimit="10"/>
<path d="M64.8368 272.785C77.0216 281.597 82.1175 295.388 82.1175 295.388C82.1175 295.388 67.4307 294.886 55.2398 286.073C43.0489 277.261 37.9652 263.464 37.9652 263.464C37.9652 263.464 52.6459 263.967 64.8368 272.785Z" fill="#E23E57"/>
<path d="M37.9652 263.464C37.9652 263.464 53.21 271.926 58.0974 278.929C62.9848 285.932 82.1175 295.388 82.1175 295.388" stroke="#535461" stroke-width="2" stroke-miterlimit="10"/>
<path d="M99.809 294.689C85.8091 310.075 82.8472 330.183 82.8472 330.183C82.8472 330.183 102.587 325.338 116.575 309.946C130.562 294.554 133.536 274.453 133.536 274.453C133.536 274.453 113.809 279.303 99.809 294.689Z" fill="#E23E57"/>
<path d="M133.549 274.459C133.549 274.459 115.311 290.231 110.675 301.098C106.039 311.964 82.8472 330.183 82.8472 330.183" stroke="#535461" stroke-width="2" stroke-miterlimit="10"/>
<path d="M613.729 289.275C613.729 289.275 603.604 238.904 607.48 232.637C607.48 232.637 607.621 226.811 607.388 219.385C607.388 219.103 607.388 218.821 607.388 218.533C608.07 218.987 608.781 219.397 609.516 219.759C613.087 221.594 617.186 222.123 621.106 221.256L618.04 217.84C617.304 217.024 616.537 216.141 616.378 215.062C616.218 213.983 616.66 213.02 617.04 212.057C619.953 204.698 620.106 195.445 614.495 189.828C609.755 185.106 608.602 179.01 603.457 174.699C599.698 171.541 597.632 166.912 595.682 162.435C594.032 158.651 592.37 154.837 591.426 150.827C590.69 147.693 590.396 144.449 589.384 141.389C588.372 138.329 586.477 135.355 583.515 133.987C582.46 133.503 581.289 133.227 580.326 132.583C579.063 131.731 578.303 130.345 577.389 129.131C572.747 122.998 557.202 126.61 549.843 129.1C547.842 129.727 545.99 130.753 544.397 132.117L544.465 132.007C544.52 131.915 544.588 131.823 544.649 131.731C543.843 132.382 543.148 133.158 542.589 134.03C541.515 135.729 541.068 137.71 540.172 139.549C539.093 141.726 533.09 147.803 535.671 150.25C535.852 150.414 536.06 150.547 536.285 150.643C537.254 151.046 538.321 151.153 539.351 150.949L539.24 151.213C538.359 153.372 537.907 155.682 537.91 158.014C537.91 168.089 546.219 176.257 556.478 176.257C558.407 176.259 560.324 175.963 562.163 175.38C562.206 175.613 562.242 175.846 562.285 176.079C562.285 176.171 562.316 176.263 562.328 176.355L562.003 176.809C561.987 176.781 561.968 176.754 561.948 176.729L552.32 190.183C550.849 191.22 542.374 197.352 541.896 201.951C541.393 206.986 540.89 212.879 540.89 212.879L540.822 214.142C540.402 214.494 539.91 214.75 539.38 214.893C538.851 215.036 538.297 215.062 537.756 214.97C534.751 214.479 534.751 226.008 534.751 226.008C534.751 226.008 532.752 227.848 531.379 226.253C530.005 224.659 526.375 230.061 526.375 230.061L503.624 231.043L503.103 231.073L501.876 227.277C501.744 226.877 501.46 226.545 501.084 226.353C500.709 226.161 500.273 226.126 499.871 226.253C499.776 226.285 499.684 226.324 499.595 226.37L499.509 226.419L499.35 226.529L499.27 226.603C499.226 226.643 499.185 226.686 499.148 226.732L499.074 226.818L499.037 226.854C498.896 227.05 498.802 227.276 498.764 227.515C498.725 227.753 498.743 227.998 498.816 228.228L499.871 231.484C495.481 232.367 490.992 234.857 494.653 241.713L476.096 238.285L482.1 243.326L513.092 249.721C512.681 250.457 512.951 251.524 514.233 253.027C519.752 259.509 529.809 261.269 533.856 261.722C534.925 264.113 536.26 266.376 537.836 268.468L537.486 274.925C537.486 274.925 527.239 324.143 525.363 326.638C526.31 325.565 527.177 324.423 527.957 323.223C524.983 333.335 520.825 347.175 519.734 349.248C517.98 352.559 516.355 365.958 518.354 366.817C518.967 367.081 520.721 366.952 523.223 366.762V367.872L523.112 409.933C523.112 409.933 523.615 435.731 522.236 438.19C520.856 440.649 520.488 445.806 520.488 445.806C520.488 445.806 514.969 455.98 510.597 460.07C510.567 460.102 510.534 460.131 510.498 460.156L510.363 459.199C510.363 459.199 505.108 465.834 493.481 465.46C493.481 465.46 486.485 470.01 496.86 470.256C507.236 470.501 520.488 469.888 520.488 469.888C520.488 469.888 529.741 455.784 537.493 457.623V468.312H539.866V457.452C540.966 456.727 541.908 455.787 542.635 454.687C543.361 453.588 543.856 452.352 544.091 451.056C544.294 449.719 544.145 448.353 543.659 447.091C543.173 445.83 542.367 444.717 541.319 443.863C540.849 443.437 540.471 442.919 540.21 442.341C539.95 441.762 539.812 441.136 539.804 440.502L539.719 440.576C539.719 440.361 539.663 440.14 539.639 439.913C538.958 434.394 538.106 423.007 541.117 414.581C545.244 403.028 546.495 386.937 543.49 377.358C542.52 374.296 541.724 371.182 541.104 368.031C541.031 367.632 540.963 367.252 540.902 366.897C542.956 367.174 544.99 367.584 546.991 368.123C553.952 370.042 569.178 370.398 582.178 370.294C582.209 370.65 582.246 371.024 582.289 371.398C582.52 373.998 583.005 376.569 583.736 379.075C585.367 383.981 586.115 405.61 586.115 405.61C586.115 405.61 588.219 423.393 587.072 430.629C586.459 434.652 585.845 438.693 585.496 442.753V442.832C585.496 442.832 582.05 452.644 579.529 457.973C579.468 458.108 579.4 458.243 579.339 458.371C578.667 458.433 578.006 458.579 577.371 458.807C577.371 458.807 573.992 465.552 570.625 466.668C567.259 467.784 568.375 471.458 575.997 470.109C583.619 468.759 595.13 467.656 595.13 467.656L595.626 460.775L597.969 457.844L597.356 464.706L599.851 464.216L599.52 455.87L603.353 451.074C603.353 451.074 607.983 446.953 601.102 438.846V439.024C601.029 438.908 600.961 438.785 600.882 438.669V438.632C599.741 436.866 598.833 433.573 600.495 427.729C603.5 417.169 605.248 407.584 605.248 407.584C605.248 407.584 611.957 381.908 603.893 369.76H604.248C603.422 368.051 602.838 366.235 602.513 364.364C602.472 364.143 602.435 363.916 602.402 363.683C608.369 363.34 614.225 362.261 619.003 359.93C618.984 359.906 616.108 298.976 613.729 289.275ZM537.977 246.778V246.901L536.751 246.962L537.977 246.778ZM533.77 247.361C533.569 247.405 533.38 247.495 533.218 247.624C532.691 248.37 532.36 249.237 532.256 250.145L530.342 249.715C530.342 249.715 528.999 249.427 527.068 249.102L526.154 248.182C528.668 247.974 531.281 247.667 533.77 247.361Z" fill="url(#paint1_linear)"/>
<path d="M597.074 455.956L596.344 464.645L598.791 464.154L598.423 454.729L597.074 455.956Z" fill="#1D2366"/>
<path d="M541.252 414.698C538.302 423.099 539.136 434.437 539.798 439.944C540.044 441.98 540.271 443.219 540.271 443.219C540.271 443.219 535.861 453.263 535.494 453.643C535.126 454.024 522.518 461.72 522.518 461.72L513.706 466.865C513.706 466.865 504.765 462.946 509.051 461.597C509.927 461.246 510.716 460.708 511.363 460.021C515.656 455.943 521.046 445.806 521.046 445.806C521.046 445.806 521.414 440.661 522.763 438.215C524.112 435.768 523.621 410.055 523.621 410.055L523.726 368.141V362.678L540.497 362.8C540.603 364.655 540.845 366.5 541.221 368.319C541.823 371.46 542.603 374.564 543.557 377.616C546.513 387.176 545.287 403.187 541.252 414.698Z" fill="#FFB0B1"/>
<path opacity="0.1" d="M540.271 443.219C540.271 443.219 535.861 453.263 535.494 453.643C535.126 454.024 522.518 461.72 522.518 461.72L513.706 466.865C513.706 466.865 504.765 462.946 509.051 461.597C509.927 461.246 510.716 460.708 511.363 460.021L511.743 462.701L514.681 462.578L539.823 439.956C540.044 441.98 540.271 443.219 540.271 443.219Z" fill="black"/>
<path d="M539.964 440.527L514.681 463.302L511.743 463.425L511.13 459.132C511.13 459.132 505.991 465.743 494.573 465.375C494.573 465.375 487.717 469.906 497.878 470.152C508.039 470.397 521.015 469.784 521.015 469.784C521.015 469.784 530.079 455.68 537.664 457.519V468.171H539.995V457.421C541.078 456.692 542.003 455.751 542.713 454.655C543.423 453.559 543.904 452.33 544.128 451.044C544.329 449.718 544.187 448.363 543.713 447.108C543.239 445.854 542.451 444.743 541.423 443.881C540.964 443.451 540.598 442.931 540.347 442.355C540.096 441.778 539.966 441.156 539.964 440.527Z" fill="#1D2366"/>
<path d="M599.404 427.796C597.773 433.622 598.662 436.903 599.778 438.662V438.699C601.209 440.872 602.205 443.303 602.709 445.856L602.807 446.408L591.303 463.179L585.06 465.632C585.06 465.632 575.022 462.204 576.856 461.223C577.315 460.984 578.033 459.708 578.855 457.948C581.308 452.644 584.693 442.857 584.693 442.857V442.777C585.048 438.736 585.612 434.707 586.238 430.697C587.36 423.479 585.3 405.763 585.3 405.763C585.3 405.763 584.564 384.22 582.969 379.321C582.25 376.829 581.771 374.275 581.541 371.692C581.209 368.626 581.136 366.099 581.136 366.099C581.136 366.099 587.746 356.901 599.864 366.835C600.833 367.628 601.685 368.553 602.396 369.583C610.767 381.491 604.028 407.725 604.028 407.725C604.028 407.725 602.341 417.267 599.404 427.796Z" fill="#FFB0B1"/>
<path opacity="0.1" d="M602.826 446.407L591.322 463.179L585.079 465.632C585.079 465.632 575.04 462.204 576.874 461.223C577.334 460.984 578.051 459.708 578.873 457.948C583.123 457.911 585.324 461.959 585.324 461.959L590.708 461.1C590.708 461.1 597.809 447.143 599.404 446.291C600.998 445.439 599.649 439.919 599.649 439.919V438.515C599.692 438.564 599.729 438.619 599.778 438.668V438.705C601.209 440.878 602.205 443.309 602.709 445.862L602.826 446.407Z" fill="black"/>
<path d="M585.692 462.321C585.692 462.321 582.626 456.691 576.751 458.77C576.751 458.77 573.446 465.516 570.141 466.607C566.836 467.699 567.939 471.378 575.408 470.035C582.877 468.692 594.136 467.582 594.136 467.582L594.627 460.72L602.219 451.05C602.219 451.05 606.744 446.947 600.011 438.871V440.275C600.011 440.275 601.36 445.794 599.766 446.647C598.171 447.499 591.095 461.462 591.095 461.462L585.692 462.321Z" fill="#1D2366"/>
<path opacity="0.1" d="M540.516 362.788C540.622 364.643 540.863 366.488 541.239 368.307C534.335 367.295 527.926 367.798 523.726 368.129V362.665L540.516 362.788Z" fill="black"/>
<path opacity="0.1" d="M603.077 371.11C603.077 371.11 593.265 371.588 581.565 371.686C581.234 368.62 581.16 366.093 581.16 366.093C581.16 366.093 587.771 356.895 599.888 366.829C600.857 367.622 601.71 368.546 602.421 369.576C602.611 370.099 602.83 370.611 603.077 371.11Z" fill="black"/>
<path d="M603.077 370.006C603.077 370.006 560.102 372.085 547.004 368.411C533.905 364.738 520.923 367.921 518.967 367.068C517.011 366.216 518.599 352.866 520.316 349.561C522.033 346.255 531.452 312.829 531.452 312.829L540.516 265.573L550.064 262.943L550.738 262.753L567.375 258.166L579.566 254.799C579.566 254.799 603.807 349.438 601.728 356.417C600.973 359.089 600.851 361.9 601.372 364.628C601.69 366.49 602.264 368.3 603.077 370.006Z" fill="#1D2366"/>
<path d="M508.922 233.256C508.922 233.256 500.337 242.455 506.837 247.581C513.338 252.708 517.612 248.072 517.612 248.072L508.922 233.256Z" fill="#C7DAF5"/>
<path opacity="0.1" d="M508.922 233.256C508.922 233.256 500.337 242.455 506.837 247.581C513.338 252.708 517.612 248.072 517.612 248.072L508.922 233.256Z" fill="black"/>
<path d="M578.284 172.78C578.284 172.78 577.279 173.737 575.764 175.147C573.605 177.165 570.411 180.114 567.577 182.586C563.653 186.001 560.415 188.509 561.574 186.369C562.733 184.229 562.512 180.501 561.936 177.011C561.893 176.778 561.856 176.545 561.813 176.318C561.336 173.756 560.703 171.225 559.918 168.739C559.918 168.739 566.259 160.546 569.767 157.315C571.073 156.088 571.987 155.585 572.042 156.438C572.103 157.584 572.962 160.117 574.029 162.803C574.059 162.889 574.09 162.969 574.127 163.054C574.838 164.894 575.641 166.783 576.347 168.414C577.426 170.916 578.284 172.78 578.284 172.78Z" fill="#FFB0B1"/>
<path opacity="0.1" d="M574.127 163.054C573.531 166.259 572.085 169.246 569.941 171.701C567.796 174.156 565.032 175.99 561.936 177.011C561.448 174.212 560.774 171.449 559.918 168.739C559.918 168.739 571.858 153.316 572.042 156.438C572.085 157.621 573.017 160.246 574.127 163.054Z" fill="black"/>
<path opacity="0.1" d="M560.746 181.132L562.291 178.955C562.291 178.955 563.316 185.198 567.081 182.445C570.846 179.691 571.03 203.165 571.03 203.165L566.989 263.587L537.787 261.839L538.615 232.643L541.92 217.926L550.094 196.53L554.957 189.46L560.746 181.132Z" fill="black"/>
<path d="M571.03 203.54L567.351 258.172L566.964 263.961L550.683 262.986L550.07 262.949L537.805 262.213L538.633 233.011L541.938 218.294L550.113 196.898L554.976 189.828L560.764 181.47L562.31 179.299C562.31 179.299 563.334 185.541 567.099 182.788L567.179 182.733C570.858 180.402 571.03 203.54 571.03 203.54Z" fill="#1D2366"/>
<path d="M542.349 213.179C542.349 213.179 540.884 216.246 537.94 215.749C534.997 215.252 535.003 226.787 535.003 226.787C535.003 226.787 533.047 228.627 531.698 227.032C530.349 225.438 526.792 230.828 526.792 230.828L504.507 231.809C504.507 231.809 514.423 236.341 512.479 250.053C512.479 250.053 546.145 247.968 547.249 244.785C548.353 241.602 542.349 213.179 542.349 213.179Z" fill="white"/>
<path opacity="0.03" d="M542.349 213.179C542.349 213.179 540.884 216.246 537.94 215.749C534.997 215.252 535.003 226.787 535.003 226.787C535.003 226.787 533.047 228.627 531.698 227.032C530.349 225.438 526.792 230.828 526.792 230.828L504.507 231.809C504.507 231.809 514.423 236.341 512.479 250.053C512.479 250.053 546.145 247.968 547.249 244.785C548.353 241.602 542.349 213.179 542.349 213.179Z" fill="black"/>
<path d="M477.587 239.015L483.461 244.031L531.82 254.192L525.823 248.072L477.587 239.015Z" fill="white"/>
<path d="M560.838 183.064C560.035 184.29 557.735 190.57 555.816 196.052C554.215 200.621 552.878 204.637 552.878 204.637C552.878 204.637 549.757 224.959 548.163 228.633C546.568 232.306 547.433 246.631 547.433 246.631L541.491 282.008C541.491 282.008 538.799 300.251 534.641 311.148C530.539 321.874 525.97 326.902 525.829 327.062C527.669 324.572 537.695 275.551 537.695 275.551L541.006 213.725C541.006 213.725 541.491 207.851 541.981 202.828C542.472 197.806 552.406 190.95 552.406 190.95L561.985 177.33C562.948 178.618 562.304 180.862 560.838 183.064Z" fill="white"/>
<path d="M535.861 262.52C535.861 262.52 521.757 261.906 514.926 253.701C508.095 245.496 530.716 250.427 530.716 250.427L536.597 251.776L535.861 262.52Z" fill="#FFB0B1"/>
<path opacity="0.1" d="M601.728 356.423C600.973 359.095 600.851 361.906 601.372 364.634C585.986 365.726 569.527 361.568 569.527 361.568C566.461 364.389 558.385 368.546 558.385 368.546L553.982 313.969C551.167 306.611 550.064 268.057 550.064 268.057C550.064 268.057 550.315 266.04 550.677 263.016C550.677 262.943 550.677 262.863 550.708 262.789C551.805 254.345 553.982 238.493 555.049 236.353C556.521 233.41 550.524 225.579 550.524 225.579L553.252 202.307L553.584 199.498C559.336 196.929 563.745 188.724 563.745 188.724L567.13 182.794C570.809 180.433 570.999 203.57 570.999 203.57L567.32 258.203L579.511 254.836C579.511 254.836 603.807 349.444 601.728 356.423Z" fill="black"/>
<path d="M617.518 360.194C600.747 368.522 570.263 360.807 570.263 360.807C567.197 363.628 559.121 367.786 559.121 367.786L554.712 313.209C551.903 305.85 550.8 267.296 550.8 267.296C550.8 267.296 554.344 238.53 555.816 235.593C556.245 234.734 556.037 233.459 555.528 232.085C553.025 225.547 552.105 218.51 552.842 211.548L554.019 201.546L554.344 198.744C560.102 196.168 564.511 187.964 564.511 187.964L567.577 182.592L573.219 172.694L575.893 168.009L576.347 168.42L579.811 171.56C579.811 171.56 581.283 172.786 583.491 174.626C588.292 178.673 596.589 185.799 600.869 190.159C604.635 193.998 605.824 208.93 606.168 220.17C606.395 227.572 606.26 233.373 606.26 233.373C602.464 239.622 612.392 289.79 612.392 289.79C614.704 299.485 617.518 360.194 617.518 360.194Z" fill="white"/>
<path opacity="0.03" d="M585.324 187.841C585.324 187.841 573.814 209.751 575.151 218.079C576.488 226.407 580.29 235.832 578.456 238.033C577.826 238.867 577.012 239.544 576.077 240.011C575.142 240.479 574.111 240.723 573.066 240.725C571.226 240.848 566.32 244.276 566.32 244.644C566.32 245.012 561.789 245.012 557.735 246.729C553.682 248.446 547.697 249.421 547.697 249.421C547.697 249.421 536.045 249.053 534.96 250.157C533.875 251.261 532.758 257.865 535.083 263.133C537.407 268.4 539.988 272.331 541.939 273.049C543.889 273.766 556.263 269.621 566.302 268.639C576.34 267.658 587.237 259.705 587.237 259.705C587.237 259.705 599.238 255.412 601.342 248.195C603.445 240.977 598.772 201.307 598.772 201.307C598.772 201.307 595.24 182.819 585.324 187.841Z" fill="black"/>
<path opacity="0.03" d="M583.852 186.001C583.852 186.001 572.342 207.918 573.691 216.239C575.04 224.561 578.83 233.992 576.99 236.2C576.363 237.035 575.55 237.713 574.615 238.18C573.681 238.647 572.651 238.891 571.606 238.892C569.767 239.015 564.861 242.443 564.861 242.81C564.861 243.178 560.329 243.178 556.276 244.889C552.222 246.6 546.237 247.581 546.237 247.581C546.237 247.581 534.586 247.213 533.507 248.317C532.427 249.421 531.299 256.032 533.629 261.293C535.96 266.555 538.535 270.492 540.485 271.209C542.435 271.926 554.81 267.781 564.849 266.806C574.887 265.831 585.784 257.865 585.784 257.865C585.784 257.865 597.779 253.573 599.858 246.361C601.936 239.15 597.288 199.468 597.288 199.468C597.288 199.468 593.768 180.985 583.852 186.001Z" fill="black"/>
<path d="M584.962 186.737C584.962 186.737 573.452 208.654 574.801 216.975C576.15 225.297 579.94 234.728 578.107 236.93C577.479 237.767 576.665 238.446 575.73 238.914C574.794 239.383 573.762 239.627 572.716 239.628C570.877 239.751 565.971 243.178 565.971 243.54C565.971 243.902 561.445 243.908 557.386 245.625C553.326 247.342 547.347 248.317 547.347 248.317C547.347 248.317 535.696 247.949 534.61 249.053C533.525 250.157 532.409 256.768 534.733 262.029C537.057 267.29 539.639 271.227 541.589 271.945C543.539 272.662 555.914 268.517 565.952 267.536C575.991 266.555 586.888 258.601 586.888 258.601C586.888 258.601 598.889 254.308 600.992 247.091C603.095 239.873 598.453 200.204 598.453 200.204C598.453 200.204 594.872 181.746 584.962 186.737Z" fill="white"/>
<path opacity="0.1" d="M584.711 245.521C584.711 245.521 575.513 243.681 578.714 246.747C581.915 249.813 581.896 252.499 585.815 252.377C589.733 252.254 584.711 245.521 584.711 245.521Z" fill="black"/>
<path opacity="0.1" d="M600.256 311.492C600.256 311.492 596.099 314.307 604.052 320.794C612.006 327.282 600.256 311.492 600.256 311.492Z" fill="black"/>
<path opacity="0.1" d="M592.321 334.629C592.321 334.997 590.849 348.12 596.356 351.4C601.863 354.681 592.321 334.629 592.321 334.629Z" fill="black"/>
<path d="M504.887 231.779C500.448 231.932 490.857 233.287 495.83 242.565C500.227 250.776 507.616 245.288 511.774 241.124C510.76 237.242 508.295 233.897 504.887 231.779Z" fill="#FFB0B1"/>
<path d="M511.829 241.052L512.015 240.86L511.829 241.052Z" fill="#FFB0B1"/>
<path opacity="0.1" d="M583.491 175C578.781 178.219 574.832 180.936 574.059 181.5C571.95 183.064 567.927 192.244 565.333 196.929C563.266 200.7 556.552 201.669 554.019 201.908L554.344 199.106C560.102 196.53 564.511 188.325 564.511 188.325L575.893 168.371L579.811 171.934C579.811 171.934 581.283 173.16 583.491 175Z" fill="black"/>
<path d="M583.491 174.632C578.781 177.852 574.832 180.568 574.059 181.138C571.95 182.696 567.927 191.876 565.333 196.561C563.266 200.332 556.552 201.301 554.019 201.54L554.344 198.738C560.102 196.162 564.511 187.957 564.511 187.957L575.893 168.003L579.811 171.554C579.811 171.554 581.283 172.768 583.491 174.632Z" fill="#DCE7FF"/>
<path d="M574.427 159.007C574.43 162.688 573.313 166.283 571.226 169.315C568.761 172.901 565.092 175.483 560.886 176.595C556.68 177.707 552.214 177.273 548.3 175.374C544.385 173.475 541.281 170.236 539.551 166.244C537.821 162.252 537.579 157.772 538.869 153.616C540.159 149.461 542.896 145.906 546.583 143.597C550.271 141.287 554.663 140.375 558.965 141.028C563.267 141.68 567.192 143.852 570.029 147.151C572.866 150.45 574.426 154.656 574.427 159.007Z" fill="#FFB0B1"/>
<path opacity="0.1" d="M606.168 220.176C603.677 218.645 601.649 216.466 600.299 213.873C599.275 211.849 598.594 209.512 596.847 208.078C595.271 206.79 593.167 206.477 591.205 205.901C584.754 203.993 579.345 198.106 579.143 191.386C579.045 188.221 580.032 185.063 579.584 181.93C579.33 180.156 578.625 178.478 577.536 177.054C576.996 176.374 576.403 175.736 575.764 175.147C574.905 174.338 574.004 173.553 573.219 172.694C572.725 172.163 572.293 171.576 571.931 170.947C571.64 170.431 571.403 169.887 571.226 169.322C570 165.569 571.116 161.117 569.767 157.321L569.693 157.112C569.184 155.763 568.148 154.414 566.707 154.31C565.266 154.206 564.033 155.401 562.659 155.935C559.783 157.051 556.68 155.15 554.283 153.212C551.885 151.274 549.181 149.061 546.133 149.49C544.115 149.778 542.521 151.152 540.663 151.863C540.243 152.026 539.811 152.151 539.369 152.237C540.942 148.316 543.831 145.064 547.54 143.041C551.249 141.019 555.547 140.351 559.695 141.152C563.844 141.954 567.583 144.176 570.272 147.435C572.96 150.694 574.429 154.788 574.427 159.013C574.429 160.289 574.296 161.562 574.029 162.809C574.059 162.895 574.09 162.975 574.127 163.061C574.838 164.9 575.641 166.789 576.347 168.42L579.811 171.56C579.811 171.56 581.283 172.786 583.491 174.626C588.292 178.673 596.589 185.799 600.869 190.159C604.635 194.01 605.812 208.936 606.168 220.176Z" fill="black"/>
<path d="M540.448 140.659C541.325 138.875 541.761 136.876 542.809 135.183C544.349 132.73 547.034 131.161 549.794 130.21C556.999 127.727 572.226 124.121 576.776 130.21C577.671 131.437 578.413 132.798 579.652 133.644C580.596 134.288 581.737 134.564 582.773 135.048C585.674 136.41 587.526 139.378 588.513 142.407C589.5 145.436 589.795 148.687 590.518 151.808C591.444 155.812 593.069 159.608 594.688 163.379C596.595 167.831 598.619 172.449 602.298 175.595C607.321 179.887 608.431 185.965 613.091 190.674C618.61 196.267 618.432 205.496 615.587 212.824C615.213 213.787 614.79 214.792 614.937 215.816C615.084 216.84 615.844 217.773 616.562 218.588L619.579 221.992C612.441 223.715 604.365 219.986 601.041 213.443C600.017 211.42 599.336 209.089 597.583 207.648C596.013 206.36 593.903 206.054 591.947 205.477C585.496 203.564 580.087 197.671 579.885 190.95C579.787 187.792 580.774 184.634 580.326 181.506C580.077 179.721 579.37 178.031 578.272 176.601C576.586 174.399 574.041 172.921 572.667 170.468C570.343 166.366 572.109 161.037 570.435 156.634C569.92 155.285 568.89 153.936 567.449 153.832C566.008 153.727 564.775 154.923 563.395 155.457C560.525 156.573 557.422 154.678 555.025 152.734C552.627 150.79 549.923 148.582 546.869 149.018C544.851 149.3 543.263 150.673 541.405 151.391C540.031 151.918 537.247 152.39 536.045 151.231C533.507 148.895 539.387 142.843 540.448 140.659Z" fill="#591D4B"/>
<path opacity="0.1" d="M602.746 211.42C601.716 209.396 601.041 207.066 599.287 205.631C597.718 204.343 595.608 204.03 593.646 203.454C587.201 201.547 581.792 195.654 581.584 188.933C581.485 185.774 582.473 182.61 582.031 179.483C581.774 177.709 581.067 176.03 579.977 174.608C578.284 172.406 575.74 170.928 574.372 168.475C572.048 164.379 573.814 159.05 572.134 154.641C571.625 153.298 570.588 151.949 569.153 151.839C567.719 151.728 566.474 152.936 565.1 153.47C562.23 154.586 559.121 152.685 556.73 150.747C554.338 148.809 551.621 146.596 548.574 147.025C546.556 147.313 544.962 148.687 543.11 149.398C541.736 149.925 538.946 150.404 537.744 149.245C535.218 146.792 541.098 140.751 542.153 138.581C543.03 136.79 543.465 134.797 544.52 133.105C544.575 133.013 544.637 132.921 544.698 132.829C543.909 133.482 543.228 134.256 542.681 135.122C541.632 136.815 541.197 138.801 540.32 140.598C539.259 142.769 533.378 148.828 535.911 151.262C537.137 152.427 539.896 151.949 541.27 151.422C543.11 150.704 544.716 149.331 546.734 149.048C549.8 148.613 552.498 150.827 554.89 152.765C557.281 154.702 560.409 156.603 563.267 155.487C564.64 154.954 565.842 153.752 567.314 153.862C568.786 153.973 569.767 155.316 570.3 156.665C571.974 161.068 570.208 166.397 572.532 170.499C573.906 172.909 576.451 174.418 578.137 176.631C579.235 178.061 579.942 179.752 580.192 181.537C580.639 184.665 579.652 187.823 579.75 190.981C579.952 197.726 585.361 203.595 591.812 205.508C593.756 206.085 595.878 206.391 597.448 207.679C599.208 209.12 599.901 211.45 600.906 213.474C604.23 220.017 612.306 223.745 619.444 222.022L618.021 220.416C611.834 220.508 605.573 216.988 602.746 211.42Z" fill="black"/>
<path opacity="0.1" d="M560.47 183.432C559.667 184.658 557.367 190.938 555.448 196.42C553.651 195.721 552.02 191.263 552.02 191.263L561.599 177.637C562.58 178.986 561.936 181.224 560.47 183.432Z" fill="black"/>
<path d="M560.838 183.064C560.035 184.29 557.735 190.57 555.816 196.052C554.019 195.359 552.388 190.895 552.388 190.895L561.966 177.275C562.948 178.618 562.304 180.863 560.838 183.064Z" fill="#DCE7FF"/>
<path d="M505.145 245.711L499.834 228.964C499.772 228.768 499.748 228.561 499.765 228.356C499.782 228.151 499.84 227.951 499.934 227.768C500.029 227.585 500.159 227.423 500.316 227.29C500.474 227.158 500.656 227.058 500.852 226.995C501.248 226.872 501.676 226.91 502.043 227.1C502.411 227.291 502.688 227.619 502.815 228.013L508.125 244.742L507.598 248.244L505.145 245.711Z" fill="#BE8B87"/>
<path opacity="0.1" d="M500.337 227.492C500.733 227.367 501.163 227.404 501.532 227.595C501.901 227.785 502.179 228.115 502.306 228.51L507.616 245.239L507.218 247.864L507.604 248.268L508.131 244.767L502.79 228.038C502.663 227.644 502.386 227.316 502.019 227.125C501.651 226.934 501.223 226.897 500.828 227.02C500.495 227.128 500.208 227.344 500.012 227.633C500.117 227.577 500.225 227.53 500.337 227.492Z" fill="white"/>
<path d="M505.145 245.711L508.125 244.767L507.69 247.637L507.598 248.268L506.727 247.361L505.145 245.711Z" fill="#EFC8C4"/>
<path d="M506.727 247.361C506.779 247.295 506.844 247.241 506.917 247.201C506.96 247.174 507.01 247.159 507.061 247.159C507.112 247.159 507.162 247.174 507.205 247.201C507.247 247.252 507.282 247.307 507.31 247.367C507.35 247.434 507.405 247.492 507.471 247.536C507.537 247.579 507.612 247.607 507.69 247.618L507.598 248.231L506.727 247.361Z" fill="#727A9C"/>
<path d="M499.804 234.912C499.804 234.912 510.455 234.851 507.947 239.382C505.439 243.914 501.521 244.46 501.521 244.46L499.804 234.912Z" fill="#FFB0B1"/>
<path d="M433.557 31.5359H433.097C414.798 31.5359 398.615 41.2188 389.307 55.5069C379.998 41.2188 363.815 31.5359 345.516 31.5359H345.056C331.324 31.6668 318.198 37.212 308.53 46.9664C298.863 56.7208 293.436 69.8962 293.429 83.6295C293.429 100.683 300.898 124.881 315.462 144.793C343.21 182.733 389.307 215.927 389.307 215.927C389.307 215.927 435.403 182.739 463.145 144.793C477.715 124.881 485.178 100.683 485.178 83.6295C485.171 69.8973 479.745 56.7228 470.079 46.9685C460.413 37.2143 447.289 31.6684 433.557 31.5359ZM426.977 147.712C424.893 147.704 422.86 147.066 421.145 145.882C419.43 144.697 418.114 143.022 417.368 141.076H406.428C405.707 141.072 405.006 140.843 404.423 140.42C403.839 139.998 403.402 139.404 403.172 138.722L399.811 128.597L389.178 165.753C388.971 166.468 388.537 167.097 387.942 167.544C387.347 167.992 386.623 168.235 385.879 168.236H385.664C384.887 168.199 384.147 167.896 383.566 167.378C382.986 166.86 382.601 166.158 382.475 165.391L371.517 99.4813L363.508 138.482C363.325 139.223 362.898 139.881 362.297 140.352C361.695 140.822 360.954 141.077 360.191 141.076H344.78C344.318 141.096 343.857 141.022 343.425 140.859C342.992 140.695 342.597 140.446 342.263 140.126C341.929 139.806 341.664 139.422 341.482 138.997C341.301 138.572 341.207 138.114 341.207 137.652C341.207 137.189 341.301 136.732 341.482 136.306C341.664 135.881 341.929 135.497 342.263 135.177C342.597 134.857 342.992 134.608 343.425 134.445C343.857 134.281 344.318 134.207 344.78 134.227H357.492L368.837 81.7898C369.023 81.0145 369.473 80.328 370.109 79.8476C370.746 79.3672 371.529 79.1228 372.326 79.1561C373.123 79.1894 373.883 79.4984 374.477 80.0303C375.071 80.5621 375.462 81.2838 375.583 82.0719L386.774 149.306L396.304 116.063C396.502 115.363 396.921 114.746 397.499 114.304C398.078 113.861 398.783 113.618 399.511 113.61H399.578C400.299 113.61 401.001 113.838 401.585 114.261C402.168 114.684 402.604 115.28 402.828 115.965L408.905 134.245H417.233C417.825 132.446 418.903 130.846 420.347 129.621C421.791 128.396 423.545 127.594 425.417 127.303C427.288 127.012 429.203 127.244 430.951 127.972C432.699 128.701 434.211 129.899 435.322 131.433C436.432 132.967 437.097 134.778 437.242 136.667C437.388 138.555 437.01 140.446 436.148 142.133C435.287 143.82 433.976 145.235 432.361 146.224C430.746 147.213 428.889 147.736 426.995 147.736L426.977 147.712Z" fill="#E23E57"/>
<defs>
<linearGradient id="paint0_linear" x1="219.216" y1="475.174" x2="219.216" y2="97.8316" gradientUnits="userSpaceOnUse">
<stop stop-color="#808080" stop-opacity="0.25"/>
<stop offset="0.54" stop-color="#808080" stop-opacity="0.12"/>
<stop offset="1" stop-color="#808080" stop-opacity="0.1"/>
</linearGradient>
<linearGradient id="paint1_linear" x1="136882" y1="284710" x2="136882" y2="91016.7" gradientUnits="userSpaceOnUse">
<stop stop-color="#808080" stop-opacity="0.25"/>
<stop offset="0.54" stop-color="#808080" stop-opacity="0.12"/>
<stop offset="1" stop-color="#808080" stop-opacity="0.1"/>
</linearGradient>
</defs>
</svg>
